<svg xmlns="http://www.w3.org/2000/svg" width="48" height="48" viewBox="0 0 48 48"><g fill="none" fill-rule="evenodd"><path d="M34.447 37h3.238M30.91 19h10.18c1.055 0 1.91.777 1.91 1.75v18.525c0 .96-.855 1.738-1.91 1.738H30.91c-1.055 0-1.91-.778-1.91-1.738V20.75c0-.973.855-1.75 1.91-1.75zM20.5 35H23" stroke="#FFF" stroke-linecap="round" stroke-linejoin="round" stroke-width="1.5"/><path stroke="#FFF" stroke-linecap="round" stroke-width="1.5" d="M25.843 31H20.75"/><path stroke="#FFF" stroke-linecap="round" stroke-linejoin="round" stroke-width="1.5" d="M28.25 35H7.843C6.273 35 5 33.657 5 32V12c0-1.658 1.272-3 2.843-3h30.314C39.727 9 41 10.342 41 12v6.5"/><path d="M0 0h48v48H0z"/></g></svg>