<svg xmlns="http://www.w3.org/2000/svg" width="44" height="44" viewBox="0 0 44 44"><g fill="none" fill-rule="evenodd"><path d="M19.034 34.355h-8.736 0a1.568 1.568 0 01-1.393-.72h0a1.527 1.527 0 01.032-1.552l4.38-8.277h0a1.46 1.46 0 012.651 0l4.428 8.277h0c.294.473.307 1.069.034 1.554h0a1.564 1.564 0 01-1.396.717h0zm-4.368-14.647h0a5.041 5.041 0 115.042-5.041h0a5.041 5.041 0 01-5.042 5.041h0z" stroke="#666" stroke-linecap="round"/><path stroke="#E60000" stroke-linecap="round" stroke-linejoin="round" d="M29.333 22.458l5.959 4.813-2.452 7.104h-7.013l-2.452-7.104z"/><path d="M0 0h44v44H0z"/><path stroke="#666" stroke-linecap="round" d="M26.329 19.708a2.037 2.037 0 01-2.037-2.037v-6.009c0-1.125.912-2.037 2.037-2.037h6.009c1.125 0 2.037.912 2.037 2.037v6.009a2.037 2.037 0 01-2.037 2.037h-6.009z"/><path stroke="#666" stroke-linecap="round" stroke-linejoin="round" d="M9.625 38.958a4.583 4.583 0 01-4.583-4.583V9.625a4.583 4.583 0 014.583-4.583h24.75a4.583 4.583 0 014.583 4.583v24.75a4.583 4.583 0 01-4.583 4.583H9.625z"/></g></svg>