<svg xmlns="http://www.w3.org/2000/svg" width="44" height="44" viewBox="0 0 44 44"><g fill="none" fill-rule="evenodd"><path stroke="#666" stroke-linejoin="round" d="M12.578 12.52a2.796 2.796 0 013.954 0l20.67 20.671a2.796 2.796 0 11-3.954 3.954l-20.67-20.67a2.796 2.796 0 010-3.954z"/><path stroke="#666" stroke-linecap="round" stroke-linejoin="round" d="M21.599 6.76v3.839m-1.891-1.92h3.782M13.305 24.383v7.242M9.74 28.004h7.131"/><circle cx="30.225" cy="14.208" r="4.583" stroke="#E60000" stroke-linecap="round"/><circle cx="37.62" cy="10.054" r="1" fill="#666" fill-rule="nonzero"/><circle cx="8.25" cy="17.417" r="1" fill="#666" fill-rule="nonzero"/><circle cx="7.333" cy="10.97" r="1.833" fill="#E60000" fill-rule="nonzero"/><circle cx="19.22" cy="33.887" r="1" fill="#666" fill-rule="nonzero"/><path stroke="#666" stroke-linejoin="round" d="M21.118 16.878l-4.27 4.27m15.9 7.468l-4.162 4.162"/><path d="M0 0h44v44H0z"/></g></svg>