<svg width="38" height="20" viewBox="0 0 38 20" xmlns="http://www.w3.org/2000/svg"><g id="PDP-Vodafone-One-ilimitada-Total-WS10-600mbps" stroke="none" stroke-width="1" fill="none" fill-rule="evenodd"><g id="PDP-Oferta-Norte-Desktop---Destiny-4.0---Ilimitada-Plus-600" transform="translate(-33 -1039)" fill="#E60000" fill-rule="nonzero"><g id="Blocks/-Desktop-/-Product-detail-/-Example" transform="translate(20 572)"><g id="Product-detail-/-Desktop-Tablet-/-2-lines" transform="translate(0 445)"><g id="Group" transform="translate(10 10)"><g id="thunder-3" transform="translate(3.667 12.833)"><path d="M4.896 17.895l6.89-9.365a.576.576 0 000-.73.966.966 0 00-.783-.367H6.377L7.86.849a.62.62 0 00-.114-.52.765.765 0 00-.495-.286c-.402-.125-.846.03-1.047.367L.1 10.799c-.173.218-.087.512 0 .73.176.22.436.367.698.367h3.925l-1.57 5.485c-.107.37.12.753.523.879.088.073.262.073.349.073.435-.073.784-.22.871-.438zm11.917 0l6.89-9.365a.576.576 0 000-.73.966.966 0 00-.783-.367h-4.624L19.779.849a.62.62 0 00-.114-.52.765.765 0 00-.496-.286c-.402-.125-.846.03-1.047.367l-6.105 10.389c-.174.218-.087.512 0 .73.175.22.436.367.698.367h3.924l-1.57 5.485c-.107.37.12.753.523.879.089.073.262.073.35.073.435-.073.784-.22.87-.438zm13.373 0l6.36-9.365a.614.614 0 000-.73.867.867 0 00-.723-.367h-4.268L32.924.849a.66.66 0 00-.105-.52.697.697 0 00-.458-.286.808.808 0 00-.966.367l-5.636 10.389c-.16.218-.08.512 0 .73.162.22.403.367.645.367h3.622l-1.449 5.485a.731.731 0 00.482.879c.082.073.242.073.323.073.402-.073.724-.22.804-.438z" id="Path"/></g></g></g></g></g></g></svg>