<svg width="38" height="38" viewBox="0 0 38 38" xmlns="http://www.w3.org/2000/svg"><g id="PDP" stroke="none" stroke-width="1" fill="none" fill-rule="evenodd"><g id="PDP-Oferta-Norte-Desktop---Destiny-4.0---Ilimitada-Avanzada-300" transform="translate(-453 -1118)"><g id="Blocks/-Desktop-/-Product-detail-/-Example" transform="translate(20 572)"><g id="Product-detail-/-Desktop-Tablet-/-2-lines" transform="translate(420 533)"><g id="play-mid" transform="translate(10 10)"><path id="Rectangle" d="M0 0h44v44H0z"/><path d="M16.028 13.388v17.148a1.528 1.528 0 001.444 1.547c.345.011.684-.098.958-.309l.21-.156 11.062-8.25.333-.247a1.462 1.462 0 000-2.452l-.321-.241-11.03-8.02c-.458-.384-1.05-.663-1.726-.368-.567.27-.926.846-.916 1.474v.117" id="Path" stroke="#E60000" stroke-linecap="round" stroke-linejoin="round"/><circle id="Oval" stroke="#666" stroke-linecap="round" stroke-linejoin="round" cx="22" cy="22" r="17.875"/></g></g></g></g></g></svg>