<svg xmlns="http://www.w3.org/2000/svg" width="192" height="192" viewBox="0 0 192 192">
    <g fill="none" fill-rule="evenodd">
        <g>
            <path fill="#428600" fill-rule="nonzero" d="M156.41 31.4h-.07c-.322-.21-.656-.4-1-.57-.084-.05-.17-.093-.26-.13-.29-.14-.57-.26-.86-.37l-.37-.14-.85-.29-.42-.11c-.29-.06-.59-.11-.88-.15l-.39-.06c-.435-.052-.872-.08-1.31-.08-5.26 0-8.32 3.45-10.41 6.5l-10.3 13.07-53.39 67.75-29.43-25.6c-3-2.92-6.2-4.4-9.63-4.4-7.09.006-12.834 5.75-12.84 12.84-.073 2.933.824 5.808 2.55 8.18.074.11.154.218.24.32l.81 1 .12.14 39.92 44.17c2 2.3 5.56 6.51 11.3 6.51 6.48 0 10.21-5.32 12-7.93l13.91-20.54v-.05L159 48.74c1.68-2.151 2.644-4.773 2.76-7.5 0-3.975-2.015-7.678-5.35-9.84z"/>
            <path d="M0 0H192V192H0z"/>
            <path fill="#000" fill-rule="nonzero" d="M159 46.55l-54.09 82.7v.06L91 149.84c-1.83 2.61-5.56 7.93-12 7.93-5.74 0-9.35-4.21-11.3-6.51l-39.98-44.17-.12-.09-.81-1c-.086-.102-.166-.21-.24-.32-1.488-2.046-2.36-4.475-2.51-7v.84c-.071 2.93.825 5.801 2.55 8.17.074.11.154.218.24.32l.81 1 .12.14 39.88 44.15c2 2.3 5.56 6.51 11.3 6.51 6.48 0 10.21-5.32 12-7.93l13.91-20.53v-.06L159 48.6c1.68-2.155 2.644-4.78 2.76-7.51 0-.37 0-.73-.05-1.09-.32 2.381-1.254 4.638-2.71 6.55z" opacity=".2"/>
            <path fill="#E60000" fill-rule="nonzero" d="M70.09 156.09l-1-1c.32.34.653.673 1 1z"/>
        </g>
    </g>
</svg>
