<svg xmlns="http://www.w3.org/2000/svg" width="48" height="48" viewBox="0 0 48 48"><g fill="none" fill-rule="evenodd" stroke-linejoin="round" stroke-width=".923"><path stroke="#4A4D4E" d="M24.267 43.086s3.384-3.313 7.26-7.57c1.229-1.35 4.102-4.48 4.241-4.632a15.528 15.528 0 004.129-10.566c0-2.188-.452-4.27-1.266-6.16-2.338-6.141-7.905-9.794-14.364-9.794-7.246 0-13.37 4.597-15.07 12.144a15.642 15.642 0 00-.47 3.81l.003.252c-.001.098-.003.194-.003.294 0 2.297.58 4.3 1.489 6.108a15.61 15.61 0 009.027 8.088"/><path stroke="#E60000" stroke-linecap="round" d="M19.243 35.06V22.503l-3.919 2.127-2.056-3.653 7.145-4.651h3.854v26.76"/></g></svg>