<svg xmlns="http://www.w3.org/2000/svg" width="84" height="84" viewBox="0 0 84 84"><g fill="none" fill-rule="evenodd"><circle cx="42" cy="42" r="35" fill="#FFF" fill-rule="nonzero"/><path fill="#000" fill-rule="nonzero" d="M42 76.125c-19.16.001-34.76-15.404-35-34.563V42c0 19.33 15.67 35 35 35s35-15.67 35-35v-.438c-.24 19.16-15.84 34.564-35 34.563z" opacity=".06"/><path d="M0 0h84v83.781H0z"/><path fill="#E60000" fill-rule="nonzero" d="M54.858 55.82c-1.72.018-3.427-.31-5.018-.966-1.513-.63-2.86-1.6-3.938-2.835a13.159 13.159 0 01-2.541-4.559 19.221 19.221 0 01-.902-6.125 19.678 19.678 0 01.976-6.532 13.474 13.474 0 012.625-4.576 10.39 10.39 0 013.758-2.708 11.508 11.508 0 014.471-.875c2.41 0 4.384.455 5.924 1.365a9.207 9.207 0 013.5 3.5l-3.732 3.382a6.872 6.872 0 00-1.356-1.685 6.044 6.044 0 00-1.973-1.177 6.672 6.672 0 00-2.354-.437 5.192 5.192 0 00-3.5 1.343 7.446 7.446 0 00-2.227 3.631 16.914 16.914 0 00-.673 4.769 12.76 12.76 0 001.133 5.565c.755 1.58 1.693 2.63 2.813 3.15 1.022.495 2.14.76 3.277.779.906.016 1.812-.047 2.708-.188a7.481 7.481 0 001.199-.272v-5.048h-4.34v-4.813h9.406v13.484a12.268 12.268 0 01-3.443 1.26 24.841 24.841 0 01-5.793.569zm-16.034-9.917c.04 1.522-.24 3.036-.818 4.444a8.145 8.145 0 01-2.232 3.063 9.003 9.003 0 01-3.276 1.75 14.17 14.17 0 01-3.99.543 16.279 16.279 0 01-2.779-.232 14.424 14.424 0 01-4.405-1.501c-.51-.27-.987-.6-1.418-.984l2.188-4.633a14.276 14.276 0 003.018 1.815 8.363 8.363 0 003.43.691 7.507 7.507 0 001.939-.249 4.47 4.47 0 001.623-.844c.495-.39.888-.892 1.146-1.466a5.264 5.264 0 00.438-2.231c0-1.702-.526-2.936-1.58-3.719-1.054-.783-2.581-1.168-4.576-1.168a15.76 15.76 0 00-2.726.232 49.63 49.63 0 00-2.393.477V27.234h15.409v4.76H27.09v4.647c.162-.045.33-.067.499-.066h.713c3.363 0 5.959.76 7.787 2.28 1.83 1.519 2.74 3.868 2.735 7.048z"/></g></svg>