<svg xmlns="http://www.w3.org/2000/svg" width="25" height="24" viewBox="0 0 25 24">
    <g fill="none" fill-rule="evenodd">
        <path d="M0 0H24V24H0z"/>
        <path fill="#FFF" d="M15.782 14.534c.023-.017.047-.033.073-.046.572-.293 1.178-.356 1.619-.087.389.244 3.751 2.485 4.053 2.7.568.405.64 1.305.132 2.009-.28.387-.868 1.079-1.399 1.616-.822.832-1.453 1.294-1.997 1.273-.398-.015-.68-.043-1.111-.135-.62-.132-1.306-.366-2.069-.728-2.002-.948-4.32-2.666-6.982-5.343-2.663-2.677-4.36-4.997-5.284-6.995-.353-.762-.577-1.444-.7-2.061-.085-.428-.108-.704-.117-1.103-.012-.543.466-1.16 1.324-1.962.553-.518 1.265-1.09 1.658-1.357.711-.483 1.604-.395 2.011.16.204.285 2.365 3.586 2.66 4.056.274.436.199 1.042-.109 1.612-.089.165-.283.502-.555.967l-.431.731-.031.053c.104.15.235.329.394.533.527.673 1.245 1.483 2.187 2.431.273.28.694.645 1.228 1.071.123.098.25.199.383.301.447.347.926.704 1.406 1.05.12.088.235.17.342.246l1.315-.992zm-1.004 2.01c-.173.131-.41.135-.587.012l-.048-.034-.133-.093-.471-.338c-.488-.353-.976-.716-1.433-1.07l-.394-.31c-.564-.45-1.012-.839-1.316-1.15-.967-.974-1.711-1.813-2.262-2.518-.196-.25-.354-.467-.477-.649-.077-.114-.127-.194-.153-.24-.09-.156-.088-.348.004-.503l.052-.088.137-.231c.142-.24.284-.48.416-.706.279-.475.47-.807.551-.957.155-.287.186-.537.142-.607-.285-.453-2.437-3.74-2.623-4-.065-.089-.35-.117-.64.08-.348.237-1.02.777-1.536 1.26-.619.58-1.01 1.084-1.007 1.21.018.819.165 1.557.724 2.766.872 1.884 2.5 4.11 5.086 6.71 2.586 2.6 4.81 4.249 6.701 5.145 1.216.576 1.966.736 2.79.767.135.005.65-.372 1.248-.977.495-.5 1.05-1.154 1.299-1.499.116-.16.162-.318.151-.453-.006-.087-.036-.144-.052-.156-.286-.203-3.632-2.433-3.999-2.664-.08-.049-.322-.026-.6.109l-1.57 1.185z"/>
    </g>
</svg>
