<svg xmlns="http://www.w3.org/2000/svg" width="48" height="48" viewBox="0 0 48 48"><g fill="none" fill-rule="evenodd"><path stroke="#FFF" stroke-linecap="round" stroke-linejoin="round" stroke-width="1.5" d="M7.843 33A2.807 2.807 0 0 1 5 30.23V11.77A2.807 2.807 0 0 1 7.843 9h30.314A2.807 2.807 0 0 1 41 11.77V23m-8.295 10H29.21m7.415 2h2.75"/><path stroke="#FFF" stroke-linecap="round" stroke-linejoin="round" stroke-width="1.5" d="M34.362 23h7.276c.72-.027 1.327.53 1.362 1.25v13.5a1.315 1.315 0 0 1-1.362 1.263h-7.276A1.316 1.316 0 0 1 33 37.75V24.262A1.314 1.314 0 0 1 34.362 23h0zM17 33h4M9 35.09V24.91c0-1.055.707-1.91 1.58-1.91h16.84c.872 0 1.58.855 1.58 1.91v10.18c0 1.055-.707 1.91-1.58 1.91H10.58C9.707 37 9 36.145 9 35.09z"/><path d="M0 0h48v48H0z"/></g></svg>