<svg xmlns="http://www.w3.org/2000/svg" width="130" height="130" viewBox="0 0 130 130">
    <g fill="none" fill-rule="evenodd">
        <circle cx="65" cy="65" r="65" fill="#000" fill-opacity=".2"/>
        <g transform="translate(23 23)">
            <circle cx="42" cy="42" r="35" fill="#FFF" fill-rule="nonzero"/>
            <path fill="#000" fill-rule="nonzero" d="M42 76.125c-19.163 0-34.781-15.4-35-34.563V42c0 19.337 15.663 35 35 35s35-15.663 35-35v-.438c-.219 19.163-15.837 34.563-35 34.563z" opacity=".06"/>
            <path d="M0 0h84v83.781H0z"/>
            <path fill="#E60000" fill-rule="nonzero" d="M54.163 55.825c-1.707 0-3.413-.306-5.032-.963-1.531-.612-2.843-1.618-3.937-2.843-1.138-1.356-2.013-2.888-2.538-4.55a20.783 20.783 0 0 1-.919-6.125c-.043-2.232.307-4.419.963-6.519a13.775 13.775 0 0 1 2.625-4.594 10.499 10.499 0 0 1 3.762-2.712c1.4-.569 2.932-.875 4.463-.875 2.406 0 4.375.437 5.906 1.356a9.59 9.59 0 0 1 3.5 3.5l-3.719 3.369c-.35-.613-.787-1.225-1.356-1.706a5.635 5.635 0 0 0-1.968-1.182c-.744-.306-1.532-.437-2.363-.437a5.16 5.16 0 0 0-3.5 1.356c-1.094.962-1.837 2.231-2.231 3.631a17.427 17.427 0 0 0-.657 4.769 12.781 12.781 0 0 0 1.138 5.556c.744 1.575 1.706 2.625 2.8 3.15a8.408 8.408 0 0 0 3.281.788c.919 0 1.794-.044 2.713-.175a5.73 5.73 0 0 0 1.181-.263v-5.031H53.9v-4.813h9.538v13.475c-1.094.613-2.232 1.007-3.457 1.27-1.881.393-3.85.612-5.819.568z"/>
        </g>
        <path fill="#E60000" fill-rule="nonzero" d="M42.381 76.287l2.188-4.637a15.789 15.789 0 0 0 3.062 1.837c1.05.482 2.232.7 3.544.7h.262c.744 0 1.4-.087 2.013-.306a3.72 3.72 0 0 0 1.619-1.05c.437-.437.744-.962.962-1.575.175-.525.307-1.094.307-1.662v-.219c0-1.706-.525-2.975-1.575-3.763-1.05-.787-2.582-1.18-4.594-1.18-1.356 0-3.238.262-5.644.787V50.344h15.531v4.768H49.688v4.77c.218-.044.612-.088 1.225-.088 3.412 0 6.037.744 7.875 2.275 1.837 1.531 2.756 3.893 2.756 7.087 0 2.538-.569 4.55-1.75 6.081-1.138 1.576-2.538 2.582-4.156 3.02a15.676 15.676 0 0 1-4.55.655c-1.575 0-2.975-.175-4.244-.525-1.269-.35-2.231-.7-2.888-1.05-.7-.35-1.225-.7-1.575-1.05z"/>
    </g>
</svg>
