<svg width="40" height="28" viewBox="0 0 40 28" xmlns="http://www.w3.org/2000/svg"><g id="✅-Fichas-detalle---TV---Pop-Up-///-junio-2019" stroke="none" stroke-width="1" fill="none" fill-rule="evenodd"><g id="Icons+Indicators-/-Mid-Render-Icons-/-roaming" transform="translate(-4 -10)"><g id="roaming-mid"><path d="M8.215 23.75c2.393 2.867 5.935 3.953 9.462 2.723l21.185-7.55a6.545 6.545 0 004.18-4.533h0a6.545 6.545 0 00-6.092-.94l-8.34 2.955m-7.102 2.515l-8.401 2.975" id="Path" stroke="#676767" stroke-linecap="round" stroke-linejoin="round"/><path d="M23.025 20.46L14.6 11.9l2.348-.818a2.5 2.5 0 011.937.128l12.09 6.462M7 37.5h34" id="Path" stroke="#676767" stroke-linecap="round" stroke-linejoin="round"/><path id="Rectangle" d="M0 0h48v48H0z"/><path d="M13.107 21.895l-5-2.68a2.15 2.15 0 00-1.642-.095l-1.5.633 3.25 4 4.893-1.858z" id="Path" stroke="#E60000" stroke-linecap="round" stroke-linejoin="round"/></g></g></g></svg>