<svg xmlns="http://www.w3.org/2000/svg" width="84" height="84" viewBox="0 0 84 84"><defs><linearGradient id="bmcyvhzwha" x1="19.41%" x2="105.332%" y1="-3.669%" y2="70.507%"><stop offset="0%" stop-color="#FFF"/><stop offset="100%" stop-color="#FFF" stop-opacity="0"/></linearGradient><linearGradient id="tat9qbj8fb" x1="42.652%" x2="75.683%" y1="5.957%" y2="80.471%"><stop offset="0%"/><stop offset="100%" stop-opacity="0"/></linearGradient></defs><g fill="none" fill-rule="evenodd"><path fill="#D8D8D8" fill-opacity="0" d="M0 0h84v84H0z"/><path fill="#FFF" fill-rule="nonzero" d="M56.341 34.563l-.157-5.434-.079-2.669a14.163 14.163 0 00-5.355-9.428v-.508c0-.949-1.566-2.515-3.5-2.515h-.044V12.25A5.176 5.176 0 0042 7a5.25 5.25 0 00-5.25 5.25V14h-.044c-1.89 0-3.456 1.575-3.456 2.524v.508a14.16 14.16 0 00-5.35 9.424l-.08 2.708-.157 5.398a51.727 51.727 0 01-4.432 19.25h37.533a51.76 51.76 0 01-4.423-19.25zM38.461 12.25A3.552 3.552 0 0142 8.75a3.5 3.5 0 013.5 3.5V14h-7.044l.005-1.75z"/><path fill="#E60000" fill-rule="nonzero" d="M42 69.125a3.938 3.938 0 100 7.876 3.938 3.938 0 000-7.876z"/><path fill="#000" fill-rule="nonzero" d="M42 76.125a3.937 3.937 0 01-3.911-3.5 3.938 3.938 0 107.822 0 3.937 3.937 0 01-3.911 3.5z" opacity=".12"/><path fill="url(#bmcyvhzwha)" fill-rule="nonzero" d="M44.468 70h-4.962l5.556 5.565a3.94 3.94 0 00-.573-5.557L44.468 70z" opacity=".2"/><path fill="#FFF" fill-rule="nonzero" d="M67.3 70.438a1.753 1.753 0 001.663-2.188l-.354-1.247c-.875-3.5-2.035-4.895-4.489-7.525a13.979 13.979 0 01-2.021-2.791c-.193-.35-.38-.753-.565-1.111H22.466c-.184.358-.372.76-.565 1.11a13.957 13.957 0 01-2.021 2.792c-2.459 2.625-3.605 4.038-4.489 7.525l-.354 1.247a1.754 1.754 0 00.3 1.497c.325.426.827.68 1.362.69h50.602z"/><path fill="#4A4D4E" fill-rule="nonzero" d="M60.764 53.813H23.231c-.267.568-.481 1.198-.77 1.75h39.073c-.284-.547-.503-1.182-.77-1.75z"/><path fill="#000" fill-rule="nonzero" d="M36.75 13.125h1.706V14H36.75zm8.75 0h1.706V14H45.5z" opacity=".12"/><path fill="url(#tat9qbj8fb)" fill-rule="nonzero" d="M56.341 34.563l-.157-5.434-.079-2.669a14.17 14.17 0 00-5.355-9.446v-.49c0-.945-1.562-2.507-3.535-2.515V12.25A5.194 5.194 0 0042 7a5.25 5.25 0 00-5.25 5.25V14c-1.934 0-3.5 1.566-3.5 2.516v.507l-.04.035L56.933 40.78a51.181 51.181 0 01-.59-6.217zM45.5 14h-7.035v-1.75A3.544 3.544 0 0142 8.75a3.5 3.5 0 013.5 3.5V14z" opacity=".2"/><path fill="#000" fill-rule="nonzero" d="M33.513 16.188h16.974c.145 0 .263.117.263.262v.613h-17.5v-.613c0-.145.118-.262.263-.262z" opacity=".12"/><path fill="#000" fill-rule="nonzero" d="M67.3 69.563H16.7a1.752 1.752 0 01-1.672-1.313 1.752 1.752 0 001.671 2.188h50.602a1.754 1.754 0 001.671-2.188 1.751 1.751 0 01-1.671 1.313z" opacity=".06"/></g></svg>