<svg xmlns="http://www.w3.org/2000/svg" width="84" height="84" viewBox="0 0 84 84"><defs><linearGradient id="53zzzdvina" x1="-20.794%" x2="73.001%" y1="24.658%" y2="121.535%"><stop offset="0%"/><stop offset="100%" stop-opacity="0"/></linearGradient></defs><g fill="none" fill-rule="evenodd"><path fill="#FFF" fill-rule="nonzero" d="M77 37.297a17.025 17.025 0 00-21.28-16.411 19.763 19.763 0 00-38.526 3.815 15.197 15.197 0 00-9.973 16.914 15.197 15.197 0 0015.03 12.635h37.853c9.334-.046 16.882-7.618 16.896-16.953z"/><path fill="#000" fill-rule="nonzero" d="M60.104 53.375H22.25C13.99 53.392 7.221 46.816 7 38.557v.49A15.222 15.222 0 0022.251 54.25h37.853c9.334-.046 16.882-7.618 16.896-16.953v-.438c-.248 9.165-7.728 16.477-16.896 16.516z" opacity=".06"/><path d="M0 0h84v84H0z"/><path fill="url(#53zzzdvina)" fill-rule="nonzero" d="M42.875 31.557l.254 15.934.048 6.759h16.927c1.604-.01 3.2-.248 4.738-.704l-21.967-21.99z" opacity=".2"/><path stroke="#E60000" stroke-linecap="round" stroke-linejoin="round" stroke-width="3.5" d="M42 75.259V32.384m-11.375 12.25L42 32.384l11.375 12.25"/><path d="M42 76.125a1.75 1.75 0 01-1.75-1.75v.875a1.75 1.75 0 003.5 0v-.875a1.75 1.75 0 01-1.75 1.75zM31.907 44.949a1.75 1.75 0 01-2.971-.744 1.75 1.75 0 002.971 1.619l8.343-8.982v-.875l-8.343 8.982zm22.658.114a1.751 1.751 0 01-2.472-.092l-8.343-9.004v.875l8.343 8.986a1.75 1.75 0 002.971-1.619 1.752 1.752 0 01-.499.854z" opacity=".12" fill="#000" fill-rule="nonzero"/></g></svg>