<svg xmlns="http://www.w3.org/2000/svg" width="44" height="44" viewBox="0 0 44 44"><g fill="none" fill-rule="evenodd" transform="translate(-10 -10)"><circle cx="32" cy="32" r="32" fill="#FFF"/><path fill="#D8D8D8" fill-opacity="0" d="M10 10h44v44H10z"/><path d="M10 10h44v44H10z"/><path stroke="#666" stroke-linecap="round" stroke-linejoin="round" stroke-width=".917" d="M20.035 42.409l.459 4.707c.05.53.394.916.802.916h3.944c.408 0 .751-.396.802-.916l.458-4.707"/><path stroke="#666" stroke-linecap="round" stroke-linejoin="round" stroke-width=".917" d="M21.142 31.594h4.24a3.396 3.396 0 013.396 3.397v4.14a3.396 3.396 0 01-3.396 3.397h-4.24a3.395 3.395 0 01-3.396-3.396V34.99a3.396 3.396 0 013.396-3.397z"/><path stroke="#E60000" stroke-linecap="round" stroke-linejoin="round" stroke-width=".928" d="M23.264 34.796v3.162h2.75"/><path stroke="#666" stroke-linecap="round" stroke-linejoin="round" stroke-width=".917" d="M20.051 31.594l.459-4.64c.05-.52.391-.917.797-.917h3.923c.406 0 .747.392.798.917l.458 4.64m9.712-8.302h7.194a2.822 2.822 0 012.823 2.823V45.23a2.822 2.822 0 01-2.823 2.823h-7.194a2.823 2.823 0 01-2.823-2.823V26.115a2.822 2.822 0 012.823-2.823h0z"/><path stroke="#E60000" stroke-linecap="round" stroke-width=".928" d="M37.844 44.393h3.896"/><path stroke="#666" stroke-linecap="round" stroke-linejoin="round" stroke-width=".917" d="M20.198 44.393h-3.25a2.822 2.822 0 01-2.823-2.823V22.448a2.818 2.818 0 012.823-2.823h30.104a2.818 2.818 0 012.823 2.823V41.57a2.818 2.818 0 01-2.823 2.823h-.844m-12.833-.018h-6.99"/></g></svg>