<svg width="38" height="26" viewBox="0 0 38 26" xmlns="http://www.w3.org/2000/svg"><g id="PDP-Vodafone-One-ilimitada-Total-WS10-600mbps" stroke="none" stroke-width="1" fill="none" fill-rule="evenodd"><g id="PDP-Oferta-Norte-Desktop---Destiny-4.0---Ilimitada-Plus-600" transform="translate(-453 -1036)"><g id="Blocks/-Desktop-/-Product-detail-/-Example" transform="translate(20 572)"><g id="Product-detail-/-Desktop-Tablet-/-2-lines" transform="translate(420 445)"><g id="game_console_mid" transform="translate(10 10)"><path id="bg" fill-opacity="0" fill="#D8D8D8" d="M0 0h44v44H0z"/><g id="3fc183b5_166f_47b6_9285_74dd022bd923"><path id="Rectangle_path" d="M0 0h44v44H0z"/><path d="M22 28.664h-8.076a1.41 1.41 0 00-1.322.917l-.756 2.044a4.18 4.18 0 01-3.915 2.75h0a3.839 3.839 0 01-3.767-4.402l2.202-15.45a5.667 5.667 0 015.587-4.898h20.094a5.667 5.667 0 015.587 4.897l2.202 15.45a3.839 3.839 0 01-3.767 4.403h0a4.18 4.18 0 01-3.915-2.75l-.756-2.042a1.412 1.412 0 00-1.322-.917L22 28.664z" id="Shape" stroke="#666" stroke-linejoin="round"/><path id="Shape" stroke="#E60000" stroke-width="1.012" stroke-linecap="round" d="M14.208 16.042v7.333m-3.666-3.667h7.333"/></g><path d="M28.417 21.083a.917.917 0 100 1.834.917.917 0 000-1.834zm0-5.5a.917.917 0 100 1.834.917.917 0 000-1.834zm2.75 2.75a.917.917 0 100 1.834.917.917 0 000-1.834zm-5.5 0a.917.917 0 100 1.834.917.917 0 000-1.834z" id="Shape" fill="#E60000" fill-rule="nonzero"/></g></g></g></g></g></svg>