<svg xmlns="http://www.w3.org/2000/svg" width="58" height="58" viewBox="0 0 58 58"><g fill="none" fill-rule="evenodd"><path fill="#F4F4F4" d="M-569-3586H711v5277H-569z"/><g transform="translate(3.625)"><path d="M0 0h58v58H0z"/><path stroke="#666" stroke-linecap="round" stroke-linejoin="round" d="M22.831 49.97H8.03a2.467 2.467 0 01-2.468-2.467h0a2.463 2.463 0 012.468-2.465h2.59"/><circle cx="16.663" cy="38.869" r="8.637" stroke="#666" stroke-linecap="round" stroke-linejoin="round"/><circle cx="16.663" cy="38.869" r="1.459" stroke="#E60000" stroke-linecap="round" stroke-linejoin="round"/><path stroke="#666" stroke-linecap="round" stroke-linejoin="round" d="M22.708 45.038h15.545a9.253 9.253 0 009.25-9.253h0V17.282a9.25 9.25 0 00-9.25-9.252H19.747a9.243 9.243 0 00-6.541 2.71 9.246 9.246 0 00-2.709 6.542v15.542m37.006 2.345h4.936V17.898h-4.936"/></g></g></svg>