<svg xmlns="http://www.w3.org/2000/svg" width="44" height="44" viewBox="0 0 44 44">
    <g fill="none" fill-rule="evenodd">
        <g>
            <g>
                <g>
                    <g>
                        <g>
                            <g>
                                <g stroke="#666" stroke-linecap="round">
                                    <path d="M10.326 24.73H1.59h0c-.56.026-1.09-.248-1.393-.72h0c-.273-.484-.26-1.08.032-1.552l4.38-8.277h0c.337-.732 1.204-1.052 1.936-.715.316.146.57.4.715.715l4.428 8.277h0c.294.473.307 1.069.034 1.554h0c-.303.472-.836.746-1.396.717h0zM5.958 10.083h0c-2.784 0-5.041-2.257-5.041-5.041C.917 2.257 3.174 0 5.958 0 8.743 0 11 2.257 11 5.042h0c0 2.784-2.257 5.041-5.042 5.041h0z" transform="translate(-30.000000, -3399.000000) translate(20.000000, 2451.000000) translate(0.000000, 752.000000) translate(0.000000, 184.000000) translate(0.000000, 2.000000) translate(10.000000, 10.000000) translate(8.708333, 9.625000)"/>
                                </g>
                                <path stroke="#E60000" stroke-linecap="round" stroke-linejoin="round" d="M29.333 22.458L35.292 27.271 32.84 34.375 25.827 34.375 23.375 27.271z" transform="translate(-30.000000, -3399.000000) translate(20.000000, 2451.000000) translate(0.000000, 752.000000) translate(0.000000, 184.000000) translate(0.000000, 2.000000) translate(10.000000, 10.000000)"/>
                                <path d="M0 0L44 0 44 44 0 44z" transform="translate(-30.000000, -3399.000000) translate(20.000000, 2451.000000) translate(0.000000, 752.000000) translate(0.000000, 184.000000) translate(0.000000, 2.000000) translate(10.000000, 10.000000)"/>
                                <path stroke="#666" stroke-linecap="round" d="M26.329 19.708c-1.125 0-2.037-.912-2.037-2.037v-6.009c0-1.125.912-2.037 2.037-2.037h6.009c1.125 0 2.037.912 2.037 2.037v6.009c0 1.125-.912 2.037-2.037 2.037h-6.009z" transform="translate(-30.000000, -3399.000000) translate(20.000000, 2451.000000) translate(0.000000, 752.000000) translate(0.000000, 184.000000) translate(0.000000, 2.000000) translate(10.000000, 10.000000)"/>
                                <path stroke="#666" stroke-linecap="round" stroke-linejoin="round" d="M9.625 38.958c-2.531 0-4.583-2.052-4.583-4.583V9.625c0-2.531 2.052-4.583 4.583-4.583h24.75c2.531 0 4.583 2.052 4.583 4.583v24.75c0 2.531-2.052 4.583-4.583 4.583H9.625z" transform="translate(-30.000000, -3399.000000) translate(20.000000, 2451.000000) translate(0.000000, 752.000000) translate(0.000000, 184.000000) translate(0.000000, 2.000000) translate(10.000000, 10.000000)"/>
                            </g>
                        </g>
                    </g>
                </g>
            </g>
        </g>
    </g>
</svg>
