<svg xmlns="http://www.w3.org/2000/svg" width="46" height="44" viewBox="0 0 46 44">
    <g fill="none" fill-rule="evenodd" transform="translate(-10 -10)">
        <ellipse cx="33" cy="32" fill="#FFF" rx="33" ry="32"/>
        <g>
            <path stroke="#666" stroke-linecap="round" stroke-linejoin="round" stroke-width=".917" d="M9.529 13.592c-3.186.953-5.404 4.081-5.404 7.606 0 4.24 3.667 7.677 7.906 7.677h19.136c4.741.001 8.587-3.839 8.593-8.58 0-4.74-2.915-8.837-9.093-8.837-.501 0-1.002.048-1.494.142" transform="translate(11 10)"/>
            <path stroke="#666" stroke-linecap="round" stroke-linejoin="round" stroke-width=".917" d="M29.161 11.6c-1.608-4.037-5.655-7.017-9.975-7.017-5.007 0-8.92 4.018-9.671 9.009" transform="translate(11 10)"/>
            <path stroke="#E60000" stroke-linecap="round" stroke-linejoin="round" stroke-width=".917" d="M22 19.708L22 39.875" transform="translate(11 10)"/>
            <path d="M0 0H44V44H0z" transform="translate(11 10)"/>
            <path stroke="#E60000" stroke-linecap="round" stroke-linejoin="round" stroke-width=".917" d="M27.958 33.458L22 39.875 16.042 33.458" transform="translate(11 10)"/>
        </g>
    </g>
</svg>
