<svg xmlns="http://www.w3.org/2000/svg" width="80" height="90" viewBox="0 0 80 90">
    <g fill="none" fill-rule="evenodd">
        <path d="M0 0H80V80H0z" transform="translate(0 5)"/>
        <path fill="#E60000" d="M10.279 2.906L10.279 77.318 26.544 65.839 69.43 60.145 69.43 8.645z" transform="translate(0 5)"/>
        <g fill="#FFF">
            <path d="M20.766.371c-1.023 4.01-2.115 7.686-3.276 11.03-1.16 3.346-2.308 6.165-3.441 8.46-.526 1.05-1.072 2.073-1.638 3.068-.567.995-1.306 1.887-2.218 2.674-.913.788-2.06 1.424-3.442 1.908-1.383.483-3.152.74-5.308.767l-.456-4.602c.498 0 1.064-.029 1.7-.084.636-.055 1.265-.166 1.887-.331.622-.166 1.209-.395 1.762-.685.553-.29 1.01-.684 1.368-1.181.11-.14.208-.276.29-.415.084-.138.18-.318.291-.539L.075.371h5.514l5.557 15.343c.415-.995.83-2.115 1.244-3.359.415-1.244.815-2.536 1.202-3.877.387-1.34.76-2.702 1.12-4.084.359-1.382.69-2.723.995-4.023h5.06zM30.871 20.773c-2.35 0-4.133-.705-5.349-2.115-1.217-1.41-1.825-3.539-1.825-6.386V.372h5.142v11.361c0 1.383.25 2.503.747 3.36.497.856 1.354 1.285 2.57 1.285.996 0 1.839-.201 2.53-.602.69-.4 1.244-.78 1.659-1.14V.371h5.141v19.987H36.76l-.165-1.576c-.913.775-1.86 1.3-2.84 1.576-.982.276-1.943.415-2.883.415" transform="translate(0 5) translate(18.333 23.029)"/>
        </g>
    </g>
</svg>
