<svg xmlns="http://www.w3.org/2000/svg" width="80" height="90" viewBox="0 0 80 90"><g fill="none" fill-rule="evenodd"><path d="M0 5h80v80H0z"/><path fill="#E60000" d="M10.279 7.906v74.412l16.265-11.479 42.886-5.694v-51.5z"/><path d="M39.099 28.4c-1.023 4.01-2.115 7.686-3.276 11.03-1.16 3.346-2.308 6.165-3.441 8.46a65.9 65.9 0 01-1.638 3.068 10.173 10.173 0 01-2.218 2.674c-.913.788-2.06 1.424-3.442 1.908-1.383.483-3.152.74-5.308.767l-.456-4.602a20 20 0 001.7-.084 11.066 11.066 0 001.887-.331 8.5 8.5 0 001.762-.685 3.885 3.885 0 001.368-1.181c.11-.14.208-.276.29-.415.084-.138.18-.318.291-.539l-8.21-20.07h5.514l5.557 15.343c.415-.995.83-2.115 1.244-3.359a98.997 98.997 0 001.202-3.877c.387-1.34.76-2.702 1.12-4.084.359-1.382.69-2.723.995-4.023h5.06zm10.105 20.402c-2.35 0-4.133-.705-5.349-2.115-1.217-1.41-1.825-3.539-1.825-6.386v-11.9h5.142v11.361c0 1.383.25 2.503.747 3.36.497.856 1.354 1.285 2.57 1.285.996 0 1.839-.201 2.53-.602.69-.4 1.244-.78 1.659-1.14V28.4h5.141v19.987h-4.726l-.165-1.576c-.913.775-1.86 1.3-2.84 1.576a10.63 10.63 0 01-2.883.415" fill="#FFF"/></g></svg>