<svg xmlns="http://www.w3.org/2000/svg" width="48" height="48" viewBox="0 0 48 48">
    <g fill="none" fill-rule="evenodd">
        <path fill="#D8D8D8" fill-opacity="0" d="M0 0L48 0 48 48 0 48z"/>
        <path stroke="#E60000" stroke-linecap="round" stroke-linejoin="round" d="M31.5 18.375V12h0c0-4.142-3.358-7.5-7.5-7.5h0c-4.142 0-7.5 3.358-7.5 7.5 0 0 0 0 0 0v6.375"/>
        <path stroke="#666" stroke-linecap="round" stroke-linejoin="round" d="M24 28.5L24 35.5M11.5 43.5c-1.657 0-3-1.343-3-3v-19c0-1.657 1.343-3 3-3h25c1.657 0 3 1.343 3 3v19c0 1.657-1.343 3-3 3h-25z"/>
        <path stroke="#666" stroke-linecap="round" stroke-linejoin="round" d="M25.06 25.94c.586.585.586 1.535 0 2.12-.585.586-1.535.586-2.12 0-.586-.585-.586-1.535 0-2.12.585-.587 1.535-.587 2.12 0"/>
    </g>
</svg>
