<svg xmlns="http://www.w3.org/2000/svg" xmlns:xlink="http://www.w3.org/1999/xlink" width="144" height="84" viewBox="0 0 144 84"><defs><path id="25jj6f5nsa" d="M0 0h144v84H0z"/></defs><g fill="none" fill-rule="evenodd"><mask id="pla4sdgy2b" fill="#fff"><use xlink:href="#25jj6f5nsa"/></mask><g fill-rule="nonzero" mask="url(#pla4sdgy2b)"><path fill="#FFF" d="M51.558 39.438h-1.555c-7.658 0-13.97 1.502-13.97 7.618 0 3.185 3.216 6.958 8.168 6.958 3.184 0 6.28-1.293 7.485-2.276l.137 1.74h4.89v-12.33c0-6.967-2.525-10.905-9.824-10.905-8.65 0-9.996 5.678-9.996 7.406h5.138c.385-1.387 1.435-2.95 4.93-2.95 4.185 0 4.588 3.401 4.588 4.212v.523l.009.004zm.04 4.12v1.257a4.667 4.667 0 01-.506 2.01c-.602 1.33-2.839 2.703-5.655 2.703-2.436 0-4.155-.789-4.155-2.525 0-2.36 2.702-3.03 4.695-3.233a38.174 38.174 0 014.057-.213h1.563zm32.868 9.916V30.792H76.32L72.086 47.1c-.385-1.771-4.238-16.308-4.238-16.308h-8.14v22.682h5.314V36.847l4.606 16.627h4.903l4.615-16.627v16.627h5.32zm13.371-4.23c-3.384 0-5.935-3.065-5.935-7.117 0-4.053 2.569-7.118 5.935-7.118 2.569 0 4.65 1.772 5.51 4.38h5.133c-1.076-5.359-5.293-9.15-10.63-9.15-6.4 0-10.913 4.823-10.913 11.888 0 6.763 4.487 11.883 10.913 11.883 5.368 0 9.594-3.81 10.652-9.2h-5.124c-.846 2.65-2.941 4.434-5.54 4.434z"/><path fill="#000" d="M45.977 43.77c-1.993.203-4.695.886-4.695 3.233 0 1.736 1.719 2.525 4.155 2.525 2.816 0 5.053-1.365 5.655-2.702a4.66 4.66 0 00.505-2.011v-1.258h-1.563c-1.355-.001-2.71.07-4.057.213z"/><path fill="#000" d="M25.2 15.8v52.649h93.6V15.8H25.2zm21.773 18.899c-3.494 0-4.544 1.563-4.93 2.95h-5.15c0-1.728 1.329-7.406 9.996-7.406 7.3 0 9.824 3.938 9.824 10.905v12.326H51.81l-.137-1.74c-1.205.982-4.301 2.276-7.485 2.276-4.952 0-8.168-3.774-8.168-6.958 0-6.117 6.312-7.618 13.97-7.618h1.568v-.523c.004-.81-.4-4.212-4.585-4.212zm27.563 18.775h-4.903l-4.607-16.627v16.627h-5.315V30.792h8.137S71.7 45.311 72.086 47.1l4.235-16.308h8.136v22.682h-5.315V36.847l-4.606 16.627zm23.301.536c-6.427 0-10.913-5.12-10.913-11.883 0-7.065 4.513-11.888 10.913-11.888 5.35 0 9.567 3.791 10.63 9.15h-5.102c-.86-2.617-2.941-4.38-5.51-4.38-3.384 0-5.935 3.065-5.935 7.118 0 4.052 2.551 7.117 5.917 7.117 2.582 0 4.677-1.772 5.523-4.429h5.13c-1.042 5.386-5.267 9.195-10.653 9.195z"/></g></g></svg>