<svg xmlns="http://www.w3.org/2000/svg" width="84" height="84" viewBox="0 0 84 84">
    <defs>
        <linearGradient id="rs651mowfa" x1="25%" x2="102.33%" y1="25.575%" y2="85.502%">
            <stop offset="0%"/>
            <stop offset="100%" stop-opacity="0"/>
        </linearGradient>
        <linearGradient id="tbio76onmb" x1="29.56%" x2="70.44%" y1="10.73%" y2="89.27%">
            <stop offset="0%" stop-color="#FFF" stop-opacity=".3"/>
            <stop offset="100%" stop-color="#F6F6F6" stop-opacity="0"/>
        </linearGradient>
    </defs>
    <g fill="none" fill-rule="evenodd">
        <g>
            <g>
                <g>
                    <g>
                        <g>
                            <g>
                                <g transform="translate(-125 -999) translate(20 887) translate(0 88) translate(81) translate(24 24) translate(8.035 2.333)">
                                    <path fill="#D8D8D8" fill-opacity="0" d="M0 0H70.122V74.667H0z"/>
                                    <path fill="#666" fill-rule="nonzero" d="M19.775 46.95c-.807 0-1.46-.696-1.46-1.555V24.103c0-.859.653-1.555 1.46-1.555.807 0 1.46.696 1.46 1.555v21.292c0 .86-.653 1.556-1.46 1.556z"/>
                                    <path fill="#FFF" fill-rule="nonzero" d="M58.256 45.103c2.57.058 4.61 2.32 4.561 5.056V60.27c.05 2.738-1.994 5-4.565 5.056H11.87c-2.572-.056-4.615-2.318-4.566-5.056V50.159c-.049-2.74 1.997-5.002 4.57-5.056h46.382z"/>
                                    <g fill="#000" fill-rule="nonzero" opacity=".06">
                                        <path d="M51.302 5.437H4.92C2.352 5.377.314 3.115.365.38v.778c-.024 1.315.443 2.587 1.3 3.535.855.948 2.03 1.495 3.265 1.52h46.383c1.235-.025 2.41-.572 3.266-1.52.856-.948 1.324-2.22 1.3-3.535V.38c.024 1.317-.445 2.59-1.304 3.539-.858.948-2.036 1.494-3.273 1.517z" transform="translate(6.94 59.111)"/>
                                    </g>
                                    <path fill="url(#rs651mowfa)" fill-rule="nonzero" d="M39.638 55.017l4.742 8.961 11.494 2.858c3.065.65 5.136-1.725 5.437-2.934l.873-3.5-6.91-14.557-15.636 9.172z" opacity=".2" transform="rotate(-14 50.91 56.396)"/>
                                    <path fill="#F4F4F4" fill-rule="nonzero" d="M51.203 57.523H40.101c-.767 0-1.388-.682-1.388-1.523v.38c0 .842.621 1.524 1.388 1.524h11.102c.767 0 1.388-.682 1.388-1.523V56c0 .841-.621 1.523-1.388 1.523z"/>
                                    <path fill="#E60000" fill-rule="nonzero" d="M31.44 16.843c-.196.001-.384-.082-.522-.23-6.177-6.56-16.175-6.56-22.351 0-.188.199-.46.276-.715.203-.256-.073-.455-.286-.523-.558-.068-.272.006-.562.193-.76 6.753-7.176 17.687-7.176 24.44 0 .14.146.22.346.22.555 0 .21-.08.41-.22.556-.137.15-.325.234-.522.234z"/>
                                    <path fill="#E60000" fill-rule="nonzero" d="M26.89 20.992c-.116 0-.23-.03-.333-.085-.072-.037-.137-.087-.193-.148-3.636-3.852-9.512-3.852-13.148 0-.138.15-.326.234-.523.234-.196 0-.384-.084-.522-.234-.141-.147-.221-.348-.221-.558 0-.21.08-.412.221-.558 4.214-4.47 11.03-4.47 15.244 0l.026.027.036.047c.185.235.222.565.095.84-.127.276-.394.447-.683.435z"/>
                                    <ellipse cx="13.882" cy="55.222" fill="#000" fill-rule="nonzero" opacity=".06" rx="2.191" ry="2.333"/>
                                    <circle cx="18.265" cy="55.222" r="1" fill="#D62B11" fill-rule="nonzero"/>
                                    <circle cx="13.882" cy="55.222" r="1" fill="#D62B11" fill-rule="nonzero"/>
                                    <g fill-rule="nonzero" transform="translate(38.348 27.222)">
                                        <path fill="#FFF" d="M1.753 0h11.103c.766 0 1.387.679 1.387 1.517v27.3c0 .837-.62 1.516-1.387 1.516H1.753c-.766 0-1.388-.679-1.388-1.516v-27.3C.365.679.987 0 1.753 0z"/>
                                        <rect width="12.874" height="23.228" x=".867" y="3.37" fill="#333" rx="1"/>
                                        <rect width="12.874" height="23.228" x=".867" y="3.37" fill="url(#tbio76onmb)" opacity=".5" rx="2"/>
                                        <g fill="#333" opacity=".24">
                                            <path d="M12.516.19c.1 0 .18.086.18.19v22.467c0 .105-.08.19-.18.19H.358c-.1 0-.18-.085-.18-.19V.381c0-.105.08-.19.18-.19h12.158zm0-.19H.358C.16 0 0 .17 0 .38v22.467c0 .21.16.381.358.381h12.158c.198 0 .358-.17.358-.38V.38c0-.21-.16-.381-.358-.381z" transform="translate(.867 3.37)"/>
                                        </g>
                                        <rect width="2.861" height="1" x="5.874" y="1.847" fill="#4A4D4E" rx=".5"/>
                                        <rect width="1" height="1" x="4.801" y="1.847" fill="#E60000" rx=".5"/>
                                        <ellipse cx="7.304" cy="28.502" fill="#E60000" rx="1.073" ry="1.142"/>
                                    </g>
                                </g>
                            </g>
                        </g>
                    </g>
                </g>
            </g>
        </g>
    </g>
</svg>
