<svg xmlns="http://www.w3.org/2000/svg" xmlns:xlink="http://www.w3.org/1999/xlink" width="80" height="90" viewBox="0 0 80 90">
    <defs>
        <path id="prefix__a" d="M9.17 0h16.047c5.064 0 9.17 4.03 9.17 9v15.75c0 4.97-4.106 9-9.17 9H9.17c-5.065 0-9.17-4.03-9.17-9V9c0-4.97 4.105-9 9.17-9z"/>
    </defs>
    <g fill="none" fill-rule="evenodd" transform="translate(-3 -9)">
        <g>
            <path fill="#EBEBEB" fill-rule="nonzero" d="M64.189 9h-27.51c-5.064 0-9.17 4.03-9.17 9v72c0 4.97 4.106 9 9.17 9h36.68c5.064 0 9.17-4.03 9.17-9V27L64.188 9z"/>
            <path fill="#000" fill-rule="nonzero" d="M36.68 97.875h36.678c5.065 0 9.17-4.03 9.17-9V90c0 4.97-4.105 9-9.17 9H36.68c-5.064 0-9.17-4.03-9.17-9v-1.125c0 4.97 4.106 9 9.17 9zM46.995 54h16.047c5.065 0 9.17 4.03 9.17 9v15.75c0 4.97-4.105 9-9.17 9H46.995c-5.064 0-9.17-4.03-9.17-9V63c0-4.97 4.106-9 9.17-9z" opacity=".06"/>
            <path d="M0 0H110.038V108H0z"/>
            <path fill="#E60000" fill-rule="nonzero" d="M55.019 28.688c-3.165 0-5.731 2.518-5.731 5.625 0 3.106 2.566 5.624 5.73 5.624 3.166 0 5.732-2.518 5.732-5.624 0-3.107-2.566-5.626-5.731-5.626zm2.802 7.138c-.197.38-.477.714-.82.978-.555.428-1.242.656-1.948.647h-.326c-.167-.02-.332-.054-.493-.101-.755-.22-1.404-.699-1.829-1.35-.183-.28-.324-.585-.418-.906v-.073c-.049-.184-.083-.372-.103-.562-.014-.188-.014-.375 0-.563v-.056c.016-.273.059-.544.126-.81.256-.984.82-1.865 1.61-2.52.468-.387.999-.694 1.57-.906.161-.061.316-.112.47-.157l.293-.079c.24-.058.483-.101.728-.13.24-.029.482-.029.722 0h.115c-1.11.205-1.918 1.153-1.926 2.262v.073c.427.082.836.237 1.21.456.311.185.582.43.796.72l.046.067c.15.222.266.465.344.72.079.265.123.54.131.816v.112c.01.47-.091.937-.298 1.362z"/>
            <g transform="translate(37.825 54)">
                <mask id="prefix__b" fill="#fff">
                    <use xlink:href="#prefix__a"/>
                </mask>
                <g fill="#000" fill-rule="nonzero" mask="url(#prefix__b)" opacity=".06">
                    <g>
                        <path d="M13.182 20.813h11.462v-7.875H13.182v7.874zm12.608-9v10.124H12.035V11.813H25.79z" transform="translate(-1.72)"/>
                        <path d="M10.889 0L9.743 0 9.743 10.591 12.589 13.076 13.351 12.236 10.889 10.086zM13.351 21.446L12.589 20.606 9.743 23.091 9.743 33.682 10.889 33.682 10.889 23.596zM24.543 12.241L25.317 13.071 28.083 10.586 28.083 0 26.936 0 26.936 10.091zM26.936 33.682L28.083 33.682 28.083 23.096 25.317 20.611 24.543 21.441 26.936 23.591zM1.053 9.165L.242 9.96 7.861 17.438 12.97 17.438 12.97 16.313 8.335 16.313zM24.93 16.313L24.93 17.438 30.039 17.438 37.658 9.96 36.847 9.165 29.564 16.313zM18.34 21.167L18.34 33.682 19.486 33.682 19.486 21.167zM18.34.068L18.34 12.589 19.486 12.589 19.486.068z" transform="translate(-1.72)"/>
                    </g>
                </g>
            </g>
            <path fill="#F4F4F4" fill-rule="nonzero" d="M46.995 54.563c-4.748 0-8.596 3.777-8.596 8.437v15.75c0 4.66 3.848 8.438 8.596 8.438h16.047c4.748 0 8.597-3.778 8.597-8.438V63c0-4.66-3.849-8.438-8.597-8.438H46.995zm0-1.126h16.047c5.381 0 9.743 4.282 9.743 9.563v15.75c0 5.281-4.362 9.563-9.743 9.563H46.995c-5.38 0-9.743-4.282-9.743-9.563V63c0-5.281 4.362-9.563 9.743-9.563z"/>
            <path fill="#000" fill-rule="nonzero" d="M46.995 54.563c-4.748 0-8.596 3.777-8.596 8.437v15.75c0 4.66 3.848 8.438 8.596 8.438h16.047c4.748 0 8.597-3.778 8.597-8.438V63c0-4.66-3.849-8.438-8.597-8.438H46.995zm0-1.126h16.047c5.381 0 9.743 4.282 9.743 9.563v15.75c0 5.281-4.362 9.563-9.743 9.563H46.995c-5.38 0-9.743-4.282-9.743-9.563V63c0-5.281 4.362-9.563 9.743-9.563z" opacity=".06"/>
            <path fill="#000" fill-rule="nonzero" d="M46.995 54.563c-4.748 0-8.596 3.777-8.596 8.437v15.75c0 4.66 3.848 8.438 8.596 8.438h16.047c4.748 0 8.597-3.778 8.597-8.438V63c0-4.66-3.849-8.438-8.597-8.438H46.995zm0-1.126h16.047c5.381 0 9.743 4.282 9.743 9.563v15.75c0 5.281-4.362 9.563-9.743 9.563H46.995c-5.38 0-9.743-4.282-9.743-9.563V63c0-5.281 4.362-9.563 9.743-9.563z" opacity=".06"/>
        </g>
        <ellipse cx="25.6" cy="41.933" fill="#343232" rx="22" ry="21.5"/>
        <path fill="#FFF" fill-rule="nonzero" d="M13.117 48.255c.662 0 1.303-.097 1.924-.29.686-.194 1.275-.627 1.767-1.3.504-.663.756-1.539.756-2.629 0-1.377-.394-2.392-1.182-3.045-.788-.654-1.909-.98-3.362-.98-.252 0-.425.011-.519.035v-2.004h4.623v-2.048h-6.653v6.32c.95-.206 1.688-.308 2.215-.308.861 0 1.52.168 1.977.505.458.337.686.872.686 1.604v.097c0 .252-.041.49-.123.712-.088.252-.226.474-.413.668-.188.193-.422.34-.703.44-.252.087-.54.131-.862.131h-.114c-.539 0-1.034-.1-1.485-.299-.451-.199-.888-.46-1.31-.782l-.931 2.004c.158.158.38.316.668.475.287.158.7.313 1.239.465.539.153 1.14.229 1.802.229zm9.835 0c.808 0 1.485-.19 2.03-.567.545-.378.986-.864 1.323-1.459.337-.595.577-1.258.72-1.99.144-.733.216-1.46.216-2.18 0-.762-.097-1.588-.29-2.479-.182-.973-.622-1.825-1.319-2.558-.685-.767-1.579-1.15-2.68-1.15-.803 0-1.544.235-2.224.707-.68.471-1.198 1.2-1.556 2.184-.345 1.008-.518 2.106-.518 3.296 0 .72.071 1.447.215 2.18.144.732.384 1.395.72 1.99.338.595.779 1.081 1.324 1.459.544.378 1.224.567 2.039.567zm.052-2.074h-.052c-.346 0-.642-.109-.888-.326-.246-.216-.447-.514-.602-.892-.155-.378-.273-.816-.352-1.314-.079-.498-.118-1.034-.118-1.608-.006-.082-.01-.167-.01-.255 0-.14.007-.287.018-.44.018-.257.038-.541.062-.852.053-.615.246-1.198.58-1.749.328-.539.753-.808 1.274-.808h.036c.252 0 .495.08.73.241.233.161.441.407.623.739.182.33.327.754.435 1.27.109.515.163 1.133.163 1.854v.229c0 .345-.024.717-.07 1.116-.053.486-.154.939-.304 1.358-.15.419-.353.766-.61 1.041-.247.264-.551.396-.915.396zm7.489-4.694c.48 0 .9-.082 1.26-.246.361-.164.661-.378.902-.641.24-.264.42-.564.54-.901.12-.337.18-.684.18-1.042-.005-.17-.067-.507-.184-1.01-.117-.428-.422-.835-.914-1.222-.48-.381-1.075-.571-1.784-.571-.364 0-.718.06-1.064.18-.346.12-.655.303-.927.549-.273.246-.486.545-.642.896-.155.352-.233.75-.233 1.196 0 .346.06.687.18 1.024.12.337.3.637.541.9.24.264.538.478.892.642.355.164.772.246 1.253.246zm-1.565 6.618l11.233-11.012-1.196-1.24-11.232 10.96 1.195 1.292zm1.547-8.165c-.182 0-.335-.04-.461-.118-.126-.08-.232-.179-.317-.3-.085-.12-.148-.257-.189-.412-.04-.155-.061-.312-.061-.47 0-.334.09-.63.272-.888.182-.258.434-.387.756-.387.275 0 .516.12.72.36.206.24.308.546.308.915 0 .134-.033.303-.1.505-.068.202-.174.385-.317.55-.144.163-.347.245-.611.245zm6.82 8.2c.48 0 .898-.08 1.253-.241.354-.161.652-.374.892-.637.24-.264.42-.564.54-.901.12-.337.18-.684.18-1.042 0-.351-.09-.728-.272-1.13-.182-.4-.451-.768-.809-1.102-.48-.387-1.069-.58-1.766-.58-.37 0-.731.063-1.086.189-.354.126-.666.312-.936.558-.27.246-.483.546-.641.9-.158.355-.237.75-.237 1.183 0 .346.06.687.18 1.024.12.337.3.637.54.9.24.264.54.477.901.638.36.161.78.242 1.261.242zm-.017-1.546c-.346 0-.604-.135-.774-.405-.17-.27-.255-.56-.255-.87 0-.31.085-.6.255-.87.17-.275.428-.413.774-.413.345 0 .603.136.773.409.17.272.255.564.255.874 0 .31-.085.6-.255.87-.17.27-.428.405-.773.405z"/>
    </g>
</svg>
