<svg xmlns="http://www.w3.org/2000/svg" width="24" height="24" viewBox="0 0 24 24"><g fill="none" fill-rule="evenodd"><path d="M0 0h24v24H0z"/><path stroke="#333" stroke-linecap="round" stroke-linejoin="round" stroke-width=".958" d="M16.944 5.482H7.05a.949.949 0 00-.676.283L2.761 9.428a.951.951 0 000 1.334l8.56 8.678a.946.946 0 001.341.011l.012-.011 8.56-8.678a.953.953 0 000-1.335l-3.609-3.662a.952.952 0 00-.681-.283z"/><path stroke="#333" stroke-linecap="round" stroke-linejoin="round" stroke-width=".958" d="M5.721 10.375a8.876 8.876 0 0112.548 0h0"/><path stroke="#333" stroke-linecap="round" stroke-linejoin="round" stroke-width=".958" d="M7.515 12.274a6.34 6.34 0 018.964 0h0m-7.088 1.863a3.687 3.687 0 015.211 0h0"/><circle cx="11.998" cy="16.361" r="1" stroke="#333" stroke-linecap="round" stroke-linejoin="round" stroke-width=".958"/><circle cx="11.998" cy="16.361" r="1" stroke="#333" stroke-linecap="round" stroke-linejoin="round" stroke-width=".958"/><circle cx="11.998" cy="16.361" r="1" stroke="#333" stroke-linecap="round" stroke-linejoin="round" stroke-width=".958"/></g></svg>