<svg width="96" height="96" viewBox="0 0 96 96" xmlns="http://www.w3.org/2000/svg"><g id="Page-2" stroke="none" stroke-width="1" fill="none" fill-rule="evenodd"><g id="Icons+Indicators-/-HiFi-Icons-/-router-/-light_theme"><g id="router_hifi_hi"><path id="bg" fill-opacity="0" fill="#D8D8D8" d="M0 0h96v96H0z"/><path d="M64.03 60.365a2 2 0 01-2-2V30.99a2 2 0 114 0v27.375a2 2 0 01-2 2z" id="Shape" fill="#666" fill-rule="nonzero"/><path d="M16.255 57.99h63.5A6.38 6.38 0 0186 64.49v13a6.38 6.38 0 01-6.25 6.5h-63.5a6.38 6.38 0 01-6.25-6.5v-13a6.38 6.38 0 016.255-6.5z" id="Shape" fill="#EBEBEB" fill-rule="nonzero"/><g id="Group" opacity=".06" transform="translate(9.5 76)" fill="#000" fill-rule="nonzero"><path d="M70.235 6.99h-63.5A6.375 6.375 0 01.5.49v1a6.375 6.375 0 006.25 6.5h63.5a6.375 6.375 0 006.25-6.5v-1a6.375 6.375 0 01-6.265 6.5z" id="Shape"/></g><path d="M80 21.655a1 1 0 01-.715-.295c-8.456-8.435-22.144-8.435-30.6 0a1.013 1.013 0 11-1.43-1.435c9.245-9.226 24.215-9.226 33.46 0a1 1 0 010 1.43 1 1 0 01-.715.3z" id="Shape" fill="#E60000" fill-rule="nonzero"/><path d="M73.77 26.99a1 1 0 01-.455-.11.96.96 0 01-.265-.19c-4.978-4.953-13.022-4.953-18 0a1 1 0 01-1.43 0 1 1 0 010-1.435c5.77-5.748 15.1-5.748 20.87 0l.035.035.05.06a1 1 0 01-.805 1.64z" id="Shape" fill="#E60000" fill-rule="nonzero"/><circle id="Oval" fill="#000" fill-rule="nonzero" opacity=".06" cx="19.005" cy="71" r="3"/><circle id="Oval" fill="#D62B11" fill-rule="nonzero" cx="25.005" cy="71" r="1"/><circle id="Oval" fill="#D62B11" fill-rule="nonzero" cx="19.005" cy="71" r="1"/></g></g></g></svg>