<svg xmlns="http://www.w3.org/2000/svg" width="48" height="48" viewBox="0 0 48 48"><g fill="none" fill-rule="evenodd"><rect width="38" height="26" x="5" y="9" stroke="#FFF" stroke-linecap="round" stroke-linejoin="round" stroke-width="1.5" rx="1.5"/><path stroke="#FFF" stroke-linecap="round" stroke-linejoin="round" stroke-width="1.5" d="M15 39h18m-9-3v2.5m0-9.657c-6.775 0-9.84-6.318-9.957-6.608a.827.827 0 0 1 0-.527c.117-.235 3.182-6.55 9.957-6.55s9.84 6.317 9.958 6.607a.827.827 0 0 1 0 .527c-.118.235-3.183 6.55-9.958 6.55z"/><path stroke="#FFF" stroke-linecap="round" stroke-linejoin="round" stroke-width="1.5" d="M24 25a3 3 0 1 1 .025 0H24z"/><path d="M0 0h48v48H0z"/></g></svg>