<svg xmlns="http://www.w3.org/2000/svg" width="48" height="48" viewBox="0 0 48 48"><g fill="none" fill-rule="evenodd"><path fill="#D8D8D8" fill-opacity="0" d="M0 0h48v48H0z"/><path stroke="#E60000" stroke-linecap="round" stroke-linejoin="round" d="M31.5 18.375V12h0A7.5 7.5 0 0024 4.5h0a7.5 7.5 0 00-7.5 7.5s0 0 0 0v6.375"/><path stroke="#666" stroke-linecap="round" stroke-linejoin="round" d="M24 28.5v7m-12.5 8a3 3 0 01-3-3v-19a3 3 0 013-3h25a3 3 0 013 3v19a3 3 0 01-3 3h-25z"/><path stroke="#666" stroke-linecap="round" stroke-linejoin="round" d="M25.06 25.94a1.498 1.498 0 11-2.12 2.12 1.498 1.498 0 010-2.12 1.496 1.496 0 012.12 0"/></g></svg>