<svg xmlns="http://www.w3.org/2000/svg" width="48" height="48" viewBox="0 0 48 48"><path fill="#333" fill-rule="evenodd" d="M4 24c0 11.046 8.954 20 20 20s20-8.954 20-20S35.046 4 24 4 4 12.954 4 24zm21.746-4.316c.745.746 1.49 1.493 2.246 2.232.384-.375.763-.756 1.142-1.137.265-.267.53-.534.798-.799.234-.236.47-.47.705-.704.425-.422.849-.842 1.262-1.276h.05c.158.189.333.36.508.532.1.098.2.196.297.297l1.01 1.01 1.99 1.992.048.046c.043.04.088.082.101.14-.65.631-1.289 1.274-1.929 1.918-.683.687-1.366 1.374-2.062 2.048l-3.806-3.806a.821.821 0 00-.06-.058.766.766 0 01-.057-.057.903.903 0 01-.054.053l-.04.037-1.908 1.906-1.928 1.925a328.256 328.256 0 01-1.773-1.767 230.766 230.766 0 00-2.219-2.206c.686-.715 1.391-1.417 2.096-2.118.63-.628 1.26-1.255 1.877-1.892h.05a.996.996 0 00.123.155c.513.508 1.023 1.018 1.533 1.53zm-11.98.526c-.49.49-.981.98-1.469 1.472-.032.034-.066.065-.101.097a.839.839 0 00-.196.225c.665.662 1.329 1.326 1.993 1.99.663.663 1.327 1.327 1.992 1.989a622.27 622.27 0 001.99-1.99h.001c.658-.66 1.316-1.32 1.976-1.977v-.05l-2.735-2.735c-.145-.149-.293-.294-.441-.44A13.942 13.942 0 0116.01 18h-.05a217.51 217.51 0 01-2.194 2.21zm6.32 9.824l.018-.043 1.307-1.305c.872-.872 1.746-1.744 2.617-2.619l.055.025c1.313 1.318 2.624 2.636 3.949 3.942-.029.065-.078.11-.128.157-.026.025-.053.05-.077.078-.474.471-.948.945-1.422 1.42-.479.478-.958.957-1.437 1.433-.124.119-.245.244-.367.369-.183.187-.366.374-.555.54a17.335 17.335 0 01-.764-.747c-.18-.182-.358-.364-.541-.54l-.658-.658c-.67-.671-1.34-1.342-2.016-2.009l.019-.043z"/></svg>