<svg xmlns="http://www.w3.org/2000/svg" width="84" height="84" viewBox="0 0 84 84"><defs><linearGradient id="84gfjuh4oa" x1="40.758%" x2="97.446%" y1="1.917%" y2="76.093%"><stop offset="0%"/><stop offset="100%" stop-opacity="0"/></linearGradient></defs><g fill="none" fill-rule="evenodd"><g fill-rule="nonzero"><path fill="#F4F4F4" d="M42 19.417L14 32.375l-7.98-7.7c-.438-.437-.438-1.938.1-2.187l24.505-10.736a1.75 1.75 0 011.824.205l9.55 7.46zm0 0l28 12.958 7.98-7.7c.437-.437.437-1.929-.097-2.187L53.375 11.752a1.751 1.751 0 00-1.825.205L42 19.417z"/><path fill="#000" d="M42 19.417L14 32.375l-7.98-7.7c-.438-.437-.438-1.938.1-2.187l24.505-10.736a1.75 1.75 0 011.824.205l9.55 7.46zm0 0l28 12.958 7.98-7.7c.437-.437.437-1.929-.097-2.187L53.375 11.752a1.751 1.751 0 00-1.825.205L42 19.417z" opacity=".06"/><path fill="#FFF" d="M42 43.97L14 31.5v28.61a1.75 1.75 0 001.05 1.579L40.6 72.863c.893.39 1.91.39 2.804 0L68.95 61.689A1.752 1.752 0 0070 60.088V31.5L42 43.97z"/><path fill="#000" d="M42 43.97v29.207c.483 0 .961-.1 1.404-.293L68.95 61.688A1.752 1.752 0 0070 60.087V31.5L42 43.97z" opacity=".06"/><path fill="#FFF" d="M42 18.542L14 31.5l-7.98-7.7a.874.874 0 01.236-1.421l24.369-11.502a1.75 1.75 0 011.824.205l9.55 7.46zm0 0L70 31.5l7.98-7.7a.876.876 0 00-.237-1.421L53.375 10.877a1.751 1.751 0 00-1.825.205L42 18.542z"/><path fill="#E60000" d="M42 43.995L14 31.5l28-12.963zm0 0L70 31.5 42 18.537z"/><path fill="#000" d="M42 43.995L14 31.5l28-12.963z" opacity=".12"/><path fill="#FFF" d="M77.529 43.803L69.999 31.5l-28 12.491 7.67 13.26a1.75 1.75 0 002.257.71l24.85-11.664a1.75 1.75 0 00.753-2.494z"/><path fill="#FFF" d="M6.47 43.803L14 31.5l28 12.491-7.67 13.265a1.75 1.75 0 01-2.257.709L7.218 46.3a1.75 1.75 0 01-.748-2.498z"/><path fill="url(#84gfjuh4oa)" d="M36.297 33.281l-7.67 13.265a1.75 1.75 0 01-2.257.709L13.984 41.44l20.593 20.594.32.14c.442.193.92.293 1.404.293V33.259l-.004.022z" opacity=".2" transform="translate(5.703 10.71)"/><path fill="#000" d="M68.95 60.813L43.403 72.009c-.894.39-1.91.39-2.804 0L15.05 60.813A1.748 1.748 0 0114 59.212v.875c0 .695.413 1.323 1.05 1.6L40.6 72.862c.893.39 1.91.39 2.804 0L68.95 61.688A1.752 1.752 0 0070 60.087v-.875a1.75 1.75 0 01-1.05 1.6z" opacity=".06"/><path fill="#000" d="M76.781 45.426L51.931 57.09a1.751 1.751 0 01-2.258-.709l-7.27-12.57-.402.18 7.669 13.26a1.75 1.75 0 002.257.71l24.85-11.664a1.75 1.75 0 00.945-2.013c-.129.501-.473.92-.94 1.142zM34.33 56.381a1.75 1.75 0 01-2.257.709L7.218 45.426a1.75 1.75 0 01-.945-1.137 1.75 1.75 0 00.945 2.012l24.85 11.664a1.751 1.751 0 002.258-.709L42 43.991l-.403-.18-7.267 12.57z" opacity=".12"/></g><path d="M0 0h84v84H0z"/></g></svg>