<svg xmlns="http://www.w3.org/2000/svg" width="84" height="84" viewBox="0 0 84 84">
    <defs>
        <linearGradient id="4xc6v9qyea" x1="40.758%" x2="97.446%" y1="1.917%" y2="76.093%">
            <stop offset="0%"/>
            <stop offset="100%" stop-opacity="0"/>
        </linearGradient>
    </defs>
    <g fill="none" fill-rule="evenodd">
        <g>
            <g>
                <g>
                    <g>
                        <g>
                            <g>
                                <g fill-rule="nonzero">
                                    <path fill="#F4F4F4" d="M36.297 8.707l-28 12.958-7.98-7.7c-.438-.437-.438-1.938.1-2.187L24.922 1.042c.598-.282 1.303-.202 1.824.205l9.55 7.46zM36.297 8.707l28 12.958 7.98-7.7c.437-.437.437-1.929-.097-2.187L47.672 1.042c-.599-.282-1.304-.202-1.825.205l-9.55 7.46z" transform="translate(-755.000000, -999.000000) translate(20.000000, 887.000000) translate(0.000000, 88.000000) translate(630.000000, 0.000000) translate(81.000000, 0.000000) translate(24.000000, 24.000000) translate(5.703478, 10.709587)"/>
                                    <path fill="#000" d="M36.297 8.707l-28 12.958-7.98-7.7c-.438-.437-.438-1.938.1-2.187L24.922 1.042c.598-.282 1.303-.202 1.824.205l9.55 7.46zM36.297 8.707l28 12.958 7.98-7.7c.437-.437.437-1.929-.097-2.187L47.672 1.042c-.599-.282-1.304-.202-1.825.205l-9.55 7.46z" opacity=".06" transform="translate(-755.000000, -999.000000) translate(20.000000, 887.000000) translate(0.000000, 88.000000) translate(630.000000, 0.000000) translate(81.000000, 0.000000) translate(24.000000, 24.000000) translate(5.703478, 10.709587)"/>
                                    <path fill="#FFF" d="M36.297 33.26l-28-12.47V49.4c.01.686.42 1.304 1.05 1.579l25.55 11.174c.893.39 1.91.39 2.804 0l25.546-11.174c.636-.278 1.048-.906 1.05-1.601V20.79l-28 12.47z" transform="translate(-755.000000, -999.000000) translate(20.000000, 887.000000) translate(0.000000, 88.000000) translate(630.000000, 0.000000) translate(81.000000, 0.000000) translate(24.000000, 24.000000) translate(5.703478, 10.709587)"/>
                                    <path fill="#000" d="M36.297 33.26v29.207c.483 0 .961-.1 1.404-.293l25.546-11.196c.636-.278 1.048-.906 1.05-1.601V20.79l-28 12.47z" opacity=".06" transform="translate(-755.000000, -999.000000) translate(20.000000, 887.000000) translate(0.000000, 88.000000) translate(630.000000, 0.000000) translate(81.000000, 0.000000) translate(24.000000, 24.000000) translate(5.703478, 10.709587)"/>
                                    <path fill="#FFF" d="M36.297 7.832l-28 12.958-7.98-7.7c-.208-.2-.303-.489-.256-.773.047-.284.231-.526.492-.648L24.922.167c.598-.282 1.303-.202 1.824.205l9.55 7.46zM36.297 7.832l28 12.958 7.98-7.7c.207-.2.302-.489.255-.773-.047-.284-.231-.526-.492-.648L47.672.167c-.599-.282-1.304-.202-1.825.205l-9.55 7.46z" transform="translate(-755.000000, -999.000000) translate(20.000000, 887.000000) translate(0.000000, 88.000000) translate(630.000000, 0.000000) translate(81.000000, 0.000000) translate(24.000000, 24.000000) translate(5.703478, 10.709587)"/>
                                    <path fill="#E60000" d="M36.297 33.285L8.297 20.79 36.297 7.827zM36.297 33.285L64.297 20.79 36.297 7.827z" transform="translate(-755.000000, -999.000000) translate(20.000000, 887.000000) translate(0.000000, 88.000000) translate(630.000000, 0.000000) translate(81.000000, 0.000000) translate(24.000000, 24.000000) translate(5.703478, 10.709587)"/>
                                    <path fill="#000" d="M36.297 33.285L8.297 20.79 36.297 7.827z" opacity=".12" transform="translate(-755.000000, -999.000000) translate(20.000000, 887.000000) translate(0.000000, 88.000000) translate(630.000000, 0.000000) translate(81.000000, 0.000000) translate(24.000000, 24.000000) translate(5.703478, 10.709587)"/>
                                    <path fill="#FFF" d="M71.826 33.093l-7.53-12.303-28 12.491 7.67 13.26c.454.787 1.435 1.095 2.257.71l24.85-11.664c.45-.211.79-.604.933-1.08.144-.475.078-.99-.18-1.414z" transform="translate(-755.000000, -999.000000) translate(20.000000, 887.000000) translate(0.000000, 88.000000) translate(630.000000, 0.000000) translate(81.000000, 0.000000) translate(24.000000, 24.000000) translate(5.703478, 10.709587)"/>
                                    <path fill="#FFF" d="M.767 33.093l7.53-12.303 28 12.491-7.67 13.265c-.454.786-1.435 1.094-2.257.709L1.515 35.59c-.45-.212-.79-.605-.932-1.082-.143-.477-.076-.992.184-1.416z" transform="translate(-755.000000, -999.000000) translate(20.000000, 887.000000) translate(0.000000, 88.000000) translate(630.000000, 0.000000) translate(81.000000, 0.000000) translate(24.000000, 24.000000) translate(5.703478, 10.709587)"/>
                                    <path fill="url(#4xc6v9qyea)" d="M36.297 33.281l-7.67 13.265c-.454.786-1.435 1.094-2.257.709L13.984 41.44l20.593 20.594.32.14c.442.193.92.293 1.404.293V33.259l-.004.022z" opacity=".2" transform="translate(-755.000000, -999.000000) translate(20.000000, 887.000000) translate(0.000000, 88.000000) translate(630.000000, 0.000000) translate(81.000000, 0.000000) translate(24.000000, 24.000000) translate(5.703478, 10.709587)"/>
                                    <path fill="#000" d="M63.247 50.103L37.7 61.299c-.894.39-1.91.39-2.804 0L9.347 50.103c-.637-.278-1.05-.906-1.05-1.601v.875c0 .695.413 1.323 1.05 1.6l25.55 11.175c.893.39 1.91.39 2.804 0l25.546-11.174c.636-.278 1.048-.906 1.05-1.601v-.875c-.002.695-.414 1.323-1.05 1.6z" opacity=".06" transform="translate(-755.000000, -999.000000) translate(20.000000, 887.000000) translate(0.000000, 88.000000) translate(630.000000, 0.000000) translate(81.000000, 0.000000) translate(24.000000, 24.000000) translate(5.703478, 10.709587)"/>
                                    <path fill="#000" d="M71.078 34.716L46.228 46.38c-.823.385-1.803.077-2.258-.709L36.7 33.101l-.402.18 7.669 13.26c.454.787 1.435 1.095 2.257.71l24.85-11.664c.756-.36 1.152-1.202.945-2.013-.129.501-.473.92-.94 1.142zM28.627 45.671c-.454.786-1.435 1.094-2.257.709L1.515 34.716c-.467-.22-.813-.637-.945-1.137-.206.81.19 1.653.945 2.012l24.85 11.664c.823.385 1.803.077 2.258-.709l7.674-13.265-.403-.18-7.267 12.57z" opacity=".12" transform="translate(-755.000000, -999.000000) translate(20.000000, 887.000000) translate(0.000000, 88.000000) translate(630.000000, 0.000000) translate(81.000000, 0.000000) translate(24.000000, 24.000000) translate(5.703478, 10.709587)"/>
                                </g>
                                <path d="M0 0H84V84H0z" transform="translate(-755.000000, -999.000000) translate(20.000000, 887.000000) translate(0.000000, 88.000000) translate(630.000000, 0.000000) translate(81.000000, 0.000000) translate(24.000000, 24.000000)"/>
                            </g>
                        </g>
                    </g>
                </g>
            </g>
        </g>
    </g>
</svg>
