<svg xmlns="http://www.w3.org/2000/svg" width="20" height="20" viewBox="0 0 20 20">
    <g fill="none" fill-rule="evenodd" stroke="#E60000" stroke-linecap="round" stroke-linejoin="round">
        <path d="M18.57 7.836c.598.602.933 1.416.93 2.265-.002.848-.342 1.66-.944 2.258l-.052.052c.45 1.71-.568 3.46-2.276 3.911l-.07.017c-.462 1.706-2.22 2.713-3.925 2.25l-.074-.02c-1.254 1.245-3.28 1.238-4.525-.016l-.05-.05c-1.71.451-3.46-.568-3.911-2.277l-.018-.069c-1.705-.463-2.712-2.22-2.25-3.926l.02-.074C.186 10.9.199 8.874 1.456 7.632l.047-.045c-.218-.82-.1-1.694.326-2.427.427-.734 1.128-1.268 1.949-1.486l.065-.016c.464-1.705 2.222-2.713 3.927-2.25l.073.022c1.254-1.246 3.28-1.239 4.526.014l.05.052c1.708-.452 3.458.566 3.91 2.274 0 .024.012.047.018.071 1.705.462 2.712 2.22 2.25 3.924-.006.025-.013.051-.021.076l-.005-.005z"/>
        <path d="M10 3.5c3.59 0 6.5 2.91 6.5 6.5s-2.91 6.5-6.5 6.5-6.5-2.91-6.5-6.5S6.41 3.5 10 3.5z"/>
        <path d="M12.75 8L8.769 12 7.25 10.5"/>
    </g>
</svg>
