<svg width="40" height="40" viewBox="0 0 40 40" xmlns="http://www.w3.org/2000/svg"><g id="PDP" stroke="none" stroke-width="1" fill="none" fill-rule="evenodd"><g id="PDP-Oferta-Norte-Desktop---Destiny-4.0---Ilimitada-Avanzada-300" transform="translate(-32 -1309)"><g id="Blocks/-Desktop-/-Product-detail-/-Example" transform="translate(20 572)"><g id="Product-detail-/-Desktop-Tablet-/-3-lines-Copy" transform="translate(0 725)"><g id="5G-mid" transform="translate(8 8)"><g id="Apps_ic_mid" transform="translate(15.25 18)" stroke="#E60000" stroke-linecap="round" stroke-linejoin="round"><path d="M15.25 6.5h3.5v3c.031 1.1-.69 2.08-1.75 2.375-2.07.565-6.25.932-6.25-5.875 0-7.375 6.64-6.475 7.625-4.625M5.71.098H.625v5.25l.548-.27A3.682 3.682 0 11.2 11.25" id="Path"/></g><path id="Rectangle" d="M0 0h48v48H0z"/><path d="M24 5c10.493 0 19 8.507 19 19s-8.507 19-19 19S5 34.493 5 24 13.507 5 24 5zm0-1C12.954 4 4 12.954 4 24s8.954 20 20 20 20-8.954 20-20S35.046 4 24 4z" id="Shape" fill="#6D6A69" fill-rule="nonzero"/></g></g></g></g></g></svg>