<svg width="38" height="37" viewBox="0 0 38 37" xmlns="http://www.w3.org/2000/svg"><g id="PDP-Vodafone-One-ilimitada-Total-WS10-600mbps" stroke="none" stroke-width="1" fill="none" fill-rule="evenodd"><g id="PDP-Oferta-Norte-Desktop---Destiny-4.0---Ilimitada-Plus-600" transform="translate(-33 -1119)"><g id="Blocks/-Desktop-/-Product-detail-/-Example" transform="translate(20 572)"><g id="Product-detail-/-Desktop-Tablet-/-2-lines" transform="translate(0 533)"><g id="cloud-download-mid" transform="translate(10 10)"><path d="M9.529 13.592c-3.186.953-5.404 4.081-5.404 7.606 0 4.24 3.667 7.677 7.906 7.677h19.136a8.591 8.591 0 008.593-8.58c0-4.74-2.915-8.837-9.093-8.837-.501 0-1.002.048-1.494.142" id="Path" stroke="#666" stroke-linecap="round" stroke-linejoin="round"/><path d="M29.161 11.6c-1.608-4.037-5.655-7.017-9.975-7.017-5.007 0-8.92 4.018-9.671 9.009" id="Path" stroke="#666" stroke-linecap="round" stroke-linejoin="round"/><path id="Path" stroke="#E60000" stroke-linecap="round" stroke-linejoin="round" d="M22 19.708v20.167"/><path id="Rectangle" d="M0 0h44v44H0z"/><path id="Path" stroke="#E60000" stroke-linecap="round" stroke-linejoin="round" d="M27.958 33.458L22 39.875l-5.958-6.417"/></g></g></g></g></g></svg>