<svg width="39" height="38" viewBox="0 0 39 38" xmlns="http://www.w3.org/2000/svg"><g id="PDP" stroke="none" stroke-width="1" fill="none" fill-rule="evenodd"><g id="PDP-Oferta-Norte-Desktop---Destiny-4.0---Ilimitada-Avanzada-300" transform="translate(-33 -1210)"><g id="Blocks/-Desktop-/-Product-detail-/-Example" transform="translate(20 572)"><g id="Product-detail-/-Desktop-Tablet-/-3-lines" transform="translate(0 621)"><g id="Icono" transform="translate(0 4)"><g id="unified-communication-mid" transform="translate(10 10)"><path d="M18.24 30.151l2.926-1.191c.73-.158 1.414-.062 1.746.29.504.537 4.657 5.301 5.005 5.719.348.417.314 1.324-.509 1.998-.822.674-4.452 3.229-5.589 2.876-1.137-.353-5.892-1.774-12.407-13.207S4.125 10.429 4.4 9.279c.275-1.15 4.354-2.926 5.36-3.28 1.006-.352 1.804.104 1.987.596.209.562 2.152 6.522 2.358 7.2.142.46-.133 1.099-.648 1.637-.516.539-2.583 2.58-2.583 2.58s.378 2.022 2.926 6.158c2.785 4.52 4.44 5.981 4.44 5.981z" id="68269b51-216b-4639-bde4-d908c15580e7" stroke="#666" stroke-linecap="round" stroke-linejoin="round"/><path id="Rectangle" d="M0 0h44v44H0z"/><path d="M25.946 19.536c-1.897 1.082-2.704 1.424-2.704 1.424-.537.2-1.092.35-1.657.446a9.52 9.52 0 01-2.41.101s1.959-1.2 2.797-3.238c-.646-.29-1.757-.79-2.291-1.198a7.613 7.613 0 01-1.393-1.375 6.531 6.531 0 01-.933-1.655 6.04 6.04 0 01-.397-1.872 6.26 6.26 0 01.585-2.94 7.764 7.764 0 011.867-2.49 9.81 9.81 0 012.854-1.778 11.25 11.25 0 013.563-.813 11.07 11.07 0 013.619.355 9.46 9.46 0 013.009 1.407 7.436 7.436 0 012.092 2.237s.818 1.23.74 2.596" id="46d443e8-08fb-4879-8250-b8c6e27e622f" stroke="#666" stroke-linecap="round" stroke-linejoin="round"/><path d="M36.112 10.961l-.362-.105a9.563 9.563 0 00-3.055-.294 9.673 9.673 0 00-3.006.667 8.314 8.314 0 00-2.418 1.474 6.417 6.417 0 00-1.572 2.062 5.074 5.074 0 00-.49 2.422 4.99 4.99 0 00.73 2.352 6.187 6.187 0 001.767 1.847 8.055 8.055 0 002.544 1.162 9.55 9.55 0 003.055.293h.1c.347.238.711.45 1.09.635.458.225.937.407 1.43.543.569.157 1.155.25 1.745.275a8.188 8.188 0 002.03-.17s-2.13-1.246-2.19-2.534a7.83 7.83 0 001.403-1.054 6.647 6.647 0 001.054-1.281c.284-.452.502-.942.646-1.456a4.945 4.945 0 00-.555-3.925 5.912 5.912 0 00-1.074-1.297 10.063 10.063 0 00-2.867-1.604" id="32c6b11f-114a-40de-8aae-738c60543e54" stroke="#E60000" stroke-linecap="round" stroke-linejoin="round"/></g></g></g></g></g></g></svg>