<svg width="121" height="120" viewBox="0 0 121 120" xmlns="http://www.w3.org/2000/svg"><g id="Desktop" stroke="none" stroke-width="1" fill="none" fill-rule="evenodd"><g id="LP-Desktop-Código_OK-check" transform="translate(-580 -355)"><g id="Modal-/-No-scroll-/-Desktop-/-Example_error" transform="translate(230 291)"><g id="Group-2" transform="translate(32 64)"><g id="tick-green-hi" transform="translate(318)"><path d="M97.756 19.625h-.043a6.094 6.094 0 00-.625-.356 1.313 1.313 0 00-.163-.081 6.629 6.629 0 00-.537-.232l-.232-.087-.531-.181-.263-.07a8.423 8.423 0 00-.55-.093l-.243-.037a6.874 6.874 0 00-.819-.05c-3.287 0-5.2 2.156-6.506 4.062l-6.438 8.169-33.368 42.343-18.394-16c-1.875-1.825-3.875-2.75-6.019-2.75A8.031 8.031 0 0015 62.288a8.337 8.337 0 001.744 5.312l.506.625.075.088 24.95 27.606c1.25 1.437 3.475 4.069 7.063 4.069 4.05 0 6.38-3.326 7.5-4.957l8.693-12.837v-.032l33.844-51.7a8.181 8.181 0 001.725-4.687 7.33 7.33 0 00-3.344-6.15z" id="Path" fill="#428600" fill-rule="nonzero"/><path id="Rectangle" d="M0 0h120v120H0z"/><path d="M99.375 29.094L65.569 80.78v.038L56.875 93.65c-1.144 1.631-3.475 4.956-7.5 4.956-3.587 0-5.844-2.631-7.063-4.069L17.326 66.931l-.075-.056-.506-.625a8.275 8.275 0 01-1.719-4.575v.525a8.331 8.331 0 001.744 5.306l.506.625.075.088 24.925 27.594c1.25 1.437 3.475 4.068 7.063 4.068 4.05 0 6.38-3.325 7.5-4.956l8.693-12.831v-.038l33.844-51.681a8.2 8.2 0 001.725-4.694c0-.231 0-.456-.031-.681a8.662 8.662 0 01-1.694 4.094z" id="Path" fill="#000" fill-rule="nonzero" opacity=".2"/><path d="M43.806 97.556l-.625-.625c.2.213.409.421.625.625z" id="Path" fill="#E60000" fill-rule="nonzero"/></g></g></g></g></g></svg>