<svg xmlns="http://www.w3.org/2000/svg" width="48" height="48" viewBox="0 0 48 48">
    <g fill="none" fill-rule="evenodd">
        <circle cx="33" cy="22" r="4" stroke="#FFF" stroke-width="1.5"/>
        <path stroke="#FFF" stroke-linecap="round" stroke-linejoin="round" stroke-width="1.5" d="M11 18.43v7.108a.617.617 0 0 0 .582.625.597.597 0 0 0 .388-.123l.085-.06 4.545-3.383.135-.1a.595.595 0 0 0 0-1l-.13-.097-4.535-3.362a.618.618 0 0 0-1.07.442v.047M21 18v8M25 18v8"/>
        <rect width="38" height="26" x="5" y="9" stroke="#FFF" stroke-linecap="round" stroke-linejoin="round" stroke-width="1.5" rx="1.5"/>
        <path stroke="#FFF" stroke-linecap="round" stroke-linejoin="round" stroke-width="1.5" d="M15 39h18M24 36v2.5"/>
        <path d="M0 0h48v48H0z"/>
    </g>
</svg>
