<svg xmlns="http://www.w3.org/2000/svg" xmlns:xlink="http://www.w3.org/1999/xlink" width="80" height="90" viewBox="0 0 80 90"><defs><path id="prefix__a" d="M9.17 0h16.047c5.064 0 9.17 4.03 9.17 9v15.75c0 4.97-4.106 9-9.17 9H9.17c-5.065 0-9.17-4.03-9.17-9V9c0-4.97 4.105-9 9.17-9z"/></defs><g fill="none" fill-rule="evenodd" transform="translate(-3 -9)"><path fill="#EBEBEB" fill-rule="nonzero" d="M64.189 9h-27.51c-5.064 0-9.17 4.03-9.17 9v72c0 4.97 4.106 9 9.17 9h36.68c5.064 0 9.17-4.03 9.17-9V27L64.188 9z"/><path fill="#000" fill-rule="nonzero" d="M36.68 97.875h36.678c5.065 0 9.17-4.03 9.17-9V90c0 4.97-4.105 9-9.17 9H36.68c-5.064 0-9.17-4.03-9.17-9v-1.125c0 4.97 4.106 9 9.17 9zM46.995 54h16.047c5.065 0 9.17 4.03 9.17 9v15.75c0 4.97-4.105 9-9.17 9H46.995c-5.064 0-9.17-4.03-9.17-9V63c0-4.97 4.106-9 9.17-9z" opacity=".06"/><path d="M0 0h110.038v108H0z"/><path fill="#E60000" fill-rule="nonzero" d="M55.019 28.688c-3.165 0-5.731 2.518-5.731 5.625 0 3.106 2.566 5.624 5.73 5.624 3.166 0 5.732-2.518 5.732-5.624 0-3.107-2.566-5.626-5.731-5.626zm2.802 7.138c-.197.38-.477.714-.82.978a3.124 3.124 0 01-1.948.647h-.326A3.276 3.276 0 0152.405 36a3.405 3.405 0 01-.418-.906v-.073a3.681 3.681 0 01-.103-.562 3.779 3.779 0 010-.563v-.056c.016-.273.059-.544.126-.81a4.87 4.87 0 011.61-2.52 5.432 5.432 0 011.57-.906c.161-.061.316-.112.47-.157l.293-.079a6.2 6.2 0 01.728-.13c.24-.029.482-.029.722 0h.115c-1.11.205-1.918 1.153-1.926 2.262v.073c.427.082.836.237 1.21.456.311.185.582.43.796.72l.046.067c.15.222.266.465.344.72.079.265.123.54.131.816v.112c.01.47-.091.937-.298 1.362z"/><g transform="translate(37.825 54)"><mask id="prefix__b" fill="#fff"><use xlink:href="#prefix__a"/></mask><g fill="#000" fill-rule="nonzero" mask="url(#prefix__b)" opacity=".06"><path d="M11.462 20.813h11.462v-7.875H11.462v7.874zm12.608-9v10.124H10.315V11.813H24.07z"/><path d="M9.169 0H8.023v10.591l2.846 2.485.762-.84-2.462-2.15zm2.462 21.446l-.762-.84-2.846 2.485v10.591h1.146V23.596zm11.192-9.205l.774.83 2.766-2.485V0h-1.147v10.091zm2.393 21.441h1.147V23.096l-2.766-2.485-.774.83 2.393 2.15zM-.667 9.165l-.811.795 7.619 7.478h5.109v-1.125H6.615zm23.877 7.148v1.125h5.109l7.619-7.478-.811-.795-7.283 7.148zm-6.59 4.854v12.515h1.146V21.167zm0-21.099v12.521h1.146V.068z"/></g></g><path fill="#F4F4F4" fill-rule="nonzero" d="M46.995 54.563c-4.748 0-8.596 3.777-8.596 8.437v15.75c0 4.66 3.848 8.438 8.596 8.438h16.047c4.748 0 8.597-3.778 8.597-8.438V63c0-4.66-3.849-8.438-8.597-8.438H46.995zm0-1.126h16.047c5.381 0 9.743 4.282 9.743 9.563v15.75c0 5.281-4.362 9.563-9.743 9.563H46.995c-5.38 0-9.743-4.282-9.743-9.563V63c0-5.281 4.362-9.563 9.743-9.563z"/><path fill="#000" fill-rule="nonzero" d="M46.995 54.563c-4.748 0-8.596 3.777-8.596 8.437v15.75c0 4.66 3.848 8.438 8.596 8.438h16.047c4.748 0 8.597-3.778 8.597-8.438V63c0-4.66-3.849-8.438-8.597-8.438H46.995zm0-1.126h16.047c5.381 0 9.743 4.282 9.743 9.563v15.75c0 5.281-4.362 9.563-9.743 9.563H46.995c-5.38 0-9.743-4.282-9.743-9.563V63c0-5.281 4.362-9.563 9.743-9.563z" opacity=".06"/><path fill="#000" fill-rule="nonzero" d="M46.995 54.563c-4.748 0-8.596 3.777-8.596 8.437v15.75c0 4.66 3.848 8.438 8.596 8.438h16.047c4.748 0 8.597-3.778 8.597-8.438V63c0-4.66-3.849-8.438-8.597-8.438H46.995zm0-1.126h16.047c5.381 0 9.743 4.282 9.743 9.563v15.75c0 5.281-4.362 9.563-9.743 9.563H46.995c-5.38 0-9.743-4.282-9.743-9.563V63c0-5.281 4.362-9.563 9.743-9.563z" opacity=".06"/><ellipse cx="25.6" cy="41.933" fill="#343232" rx="22" ry="21.5"/><path fill="#FFF" fill-rule="nonzero" d="M13.117 48.255c.662 0 1.303-.097 1.924-.29.686-.194 1.275-.627 1.767-1.3.504-.663.756-1.539.756-2.629 0-1.377-.394-2.392-1.182-3.045-.788-.654-1.909-.98-3.362-.98-.252 0-.425.011-.519.035v-2.004h4.623v-2.048h-6.653v6.32c.95-.206 1.688-.308 2.215-.308.861 0 1.52.168 1.977.505.458.337.686.872.686 1.604v.097c0 .252-.041.49-.123.712a1.814 1.814 0 01-.413.668c-.188.193-.422.34-.703.44-.252.087-.54.131-.862.131h-.114c-.539 0-1.034-.1-1.485-.299a6.46 6.46 0 01-1.31-.782l-.931 2.004c.158.158.38.316.668.475.287.158.7.313 1.239.465.539.153 1.14.229 1.802.229zm9.835 0c.808 0 1.485-.19 2.03-.567a4.368 4.368 0 001.323-1.459 6.558 6.558 0 00.72-1.99c.144-.733.216-1.46.216-2.18 0-.762-.097-1.588-.29-2.479a4.97 4.97 0 00-1.319-2.558c-.685-.767-1.579-1.15-2.68-1.15-.803 0-1.544.235-2.224.707-.68.471-1.198 1.2-1.556 2.184-.345 1.008-.518 2.106-.518 3.296 0 .72.071 1.447.215 2.18.144.732.384 1.395.72 1.99a4.381 4.381 0 001.324 1.459c.544.378 1.224.567 2.039.567zm.052-2.074h-.052c-.346 0-.642-.109-.888-.326-.246-.216-.447-.514-.602-.892a5.908 5.908 0 01-.352-1.314 10.278 10.278 0 01-.118-1.608 3.484 3.484 0 01-.01-.255c0-.14.007-.287.018-.44.018-.257.038-.541.062-.852a3.999 3.999 0 01.58-1.749c.328-.539.753-.808 1.274-.808h.036c.252 0 .495.08.73.241.233.161.441.407.623.739.182.33.327.754.435 1.27.109.515.163 1.133.163 1.854v.229c0 .345-.024.717-.07 1.116a5.924 5.924 0 01-.304 1.358c-.15.419-.353.766-.61 1.041a1.202 1.202 0 01-.915.396zm7.489-4.694c.48 0 .9-.082 1.26-.246.361-.164.661-.378.902-.641.24-.264.42-.564.54-.901.12-.337.18-.684.18-1.042-.005-.17-.067-.507-.184-1.01-.117-.428-.422-.835-.914-1.222-.48-.381-1.075-.571-1.784-.571-.364 0-.718.06-1.064.18-.346.12-.655.303-.927.549a2.62 2.62 0 00-.642.896c-.155.352-.233.75-.233 1.196 0 .346.06.687.18 1.024.12.337.3.637.541.9.24.264.538.478.892.642.355.164.772.246 1.253.246zm-1.565 6.618l11.233-11.012-1.196-1.24-11.232 10.96 1.195 1.292zm1.547-8.165a.858.858 0 01-.461-.118 1.106 1.106 0 01-.317-.3 1.264 1.264 0 01-.189-.412 1.877 1.877 0 01-.061-.47c0-.334.09-.63.272-.888a.874.874 0 01.756-.387c.275 0 .516.12.72.36.206.24.308.546.308.915 0 .134-.033.303-.1.505a1.625 1.625 0 01-.317.55c-.144.163-.347.245-.611.245zm6.82 8.2c.48 0 .898-.08 1.253-.241a2.71 2.71 0 00.892-.637c.24-.264.42-.564.54-.901.12-.337.18-.684.18-1.042 0-.351-.09-.728-.272-1.13a3.474 3.474 0 00-.809-1.102c-.48-.387-1.069-.58-1.766-.58-.37 0-.731.063-1.086.189a2.673 2.673 0 00-1.577 1.458 2.88 2.88 0 00-.237 1.183c0 .346.06.687.18 1.024.12.337.3.637.54.9.24.264.54.477.901.638.36.161.78.242 1.261.242zm-.017-1.546c-.346 0-.604-.135-.774-.405-.17-.27-.255-.56-.255-.87 0-.31.085-.6.255-.87.17-.275.428-.413.774-.413.345 0 .603.136.773.409a1.622 1.622 0 010 1.744c-.17.27-.428.405-.773.405z"/></g></svg>