<svg xmlns="http://www.w3.org/2000/svg" width="49" height="48" viewBox="0 0 49 48"><g transform="translate(1)" fill="none" fill-rule="evenodd"><path fill="#D8D8D8" fill-opacity="0" d="M0 0h48v48H0z"/><ellipse cx="19.985" cy="17.517" stroke="#666" stroke-linecap="round" rx="4.782" ry="4.775"/><ellipse cx="30.15" cy="18.883" stroke="#666" stroke-linecap="round" rx="3.417" ry="3.413"/><path stroke="#666" stroke-linecap="round" d="M12.75 29.117c1.107-4.25 3.872-6.812 7.227-6.812a6.29 6.29 0 013.25.9m4.238-.09a4.751 4.751 0 012.685-.82c2.453 0 4.473 1.79 5.27 4.775"/><ellipse cx="25.367" cy="25.183" stroke="#E60000" stroke-linecap="round" stroke-linejoin="round" rx="2.905" ry="2.9"/><path stroke="#E60000" stroke-linecap="round" stroke-linejoin="round" d="M30.09 33.21c-.587-3.39-2.53-5.137-4.695-5.137-2.165 0-4.162 1.75-4.75 5.137"/><path stroke="#666" stroke-linecap="round" d="M24.898 4.75a1.7 1.7 0 00-1.796 0C11.457 12.03 4.5 5.537 4.5 9.175c0 24.683 15.918 32.86 19 34.218.318.14.682.14 1 0 3.075-1.358 19-9.535 19-34.218 0-3.65-6.958 2.855-18.602-4.425z"/></g></svg>