<svg width="96" height="96" viewBox="0 0 96 96" xmlns="http://www.w3.org/2000/svg"><defs><linearGradient x1="26.824%" y1="10.73%" x2="73.176%" y2="89.27%" id="linearGradient-1"><stop stop-color="#FFF" stop-opacity=".3" offset="0%"/><stop stop-color="#F6F6F6" stop-opacity="0" offset="100%"/></linearGradient></defs><g id="Page-2" stroke="none" stroke-width="1" fill="none" fill-rule="evenodd"><g id="Icons+Indicators-/-HiFi-Icons-/-mobile-/-light_theme"><g id="mobile_hi"><path id="bg" fill-opacity="0" fill="#D8D8D8" d="M0 0h96v96H0z"/><path d="M32 8h32a4 4 0 014 4v72a4 4 0 01-4 4H32a4 4 0 01-4-4V12a4 4 0 014-4z" id="Rectangle_path" fill="#EBEBEB" fill-rule="nonzero"/><path d="M64 87H32a4 4 0 01-4-4v1a4 4 0 004 4h32a4 4 0 004-4v-1a4 4 0 01-4 4z" id="Shape" fill="#000" fill-rule="nonzero" opacity=".06"/><path d="M31 16h34a1 1 0 011 1v59a1 1 0 01-1 1H31a1 1 0 01-1-1V17a1 1 0 011-1z" id="Rectangle_path" fill="#333" fill-rule="nonzero"/><path d="M31 16h34a1 1 0 011 1v59a1 1 0 01-1 1H31a1 1 0 01-1-1V17a1 1 0 011-1z" id="Rectangle_path" fill="url(#linearGradient-1)" fill-rule="nonzero" opacity=".5"/><g id="Group" opacity=".24" transform="translate(30 16)" fill="#333" fill-rule="nonzero"><path d="M35 .5a.5.5 0 01.5.5v59a.5.5 0 01-.5.5H1a.5.5 0 01-.5-.5V1A.5.5 0 011 .5h34zm0-.5H1a1 1 0 00-1 1v59a1 1 0 001 1h34a1 1 0 001-1V1a1 1 0 00-1-1z" id="Shape"/></g><path d="M44.355 12h7.29c.196 0 .355.159.355.355v.29a.355.355 0 01-.355.355h-7.29a.355.355 0 01-.355-.355v-.29c0-.196.159-.355.355-.355z" id="Rectangle_path" fill="#4A4D4E" fill-rule="nonzero"/><path d="M41.355 12h.29c.196 0 .355.159.355.355v.29a.355.355 0 01-.355.355h-.29a.355.355 0 01-.355-.355v-.29c0-.196.159-.355.355-.355z" id="Rectangle_path" fill="#E60000" fill-rule="nonzero"/><circle id="Oval" fill="#E60000" fill-rule="nonzero" cx="48" cy="82" r="3"/></g></g></g></svg>