<svg xmlns="http://www.w3.org/2000/svg" width="48" height="48" viewBox="0 0 48 48">
    <g fill="none" fill-rule="evenodd" stroke-linejoin="round" stroke-width=".923">
        <path stroke="#4A4D4E" d="M15.54 38.722s3.384-3.313 7.26-7.57c1.229-1.35 4.102-4.48 4.241-4.632 2.563-2.777 4.129-6.489 4.129-10.566 0-2.188-.452-4.27-1.266-6.16C27.566 3.653 21.999 0 15.54 0 8.294 0 2.17 4.597.47 12.144.164 13.364 0 14.64 0 15.954l.003.252C.002 16.304 0 16.4 0 16.5c0 2.297.58 4.3 1.489 6.108.613 1.298 1.4 2.498 2.332 3.569 1.778 2.044 4.08 3.62 6.695 4.519" transform="translate(8.727 4.364)"/>
        <path stroke="#E60000" stroke-linecap="round" d="M10.516 30.696L10.516 18.139 6.597 20.266 4.541 16.613 11.686 11.962 15.54 11.962 15.54 38.722" transform="translate(8.727 4.364)"/>
    </g>
</svg>
