<svg xmlns="http://www.w3.org/2000/svg" width="46" height="44" viewBox="0 0 46 44"><g fill="none" fill-rule="evenodd" transform="translate(-10 -10)"><ellipse cx="33" cy="32" fill="#FFF" rx="33" ry="32"/><path stroke="#666" stroke-linecap="round" stroke-linejoin="round" stroke-width=".917" d="M20.529 23.592c-3.186.953-5.404 4.081-5.404 7.606 0 4.24 3.667 7.677 7.906 7.677h19.136a8.591 8.591 0 008.593-8.58c0-4.74-2.915-8.837-9.093-8.837-.501 0-1.002.048-1.494.142"/><path stroke="#666" stroke-linecap="round" stroke-linejoin="round" stroke-width=".917" d="M40.161 21.6c-1.608-4.037-5.655-7.017-9.975-7.017-5.007 0-8.92 4.018-9.671 9.009"/><path stroke="#E60000" stroke-linecap="round" stroke-linejoin="round" stroke-width=".917" d="M33 29.708v20.167"/><path d="M11 10h44v44H11z"/><path stroke="#E60000" stroke-linecap="round" stroke-linejoin="round" stroke-width=".917" d="M38.958 43.458L33 49.875l-5.958-6.417"/></g></svg>