<svg xmlns="http://www.w3.org/2000/svg" width="84" height="84" viewBox="0 0 84 84"><defs><linearGradient id="rs651mowfa" x1="25%" x2="102.33%" y1="25.575%" y2="85.502%"><stop offset="0%"/><stop offset="100%" stop-opacity="0"/></linearGradient><linearGradient id="tbio76onmb" x1="29.56%" x2="70.44%" y1="10.73%" y2="89.27%"><stop offset="0%" stop-color="#FFF" stop-opacity=".3"/><stop offset="100%" stop-color="#F6F6F6" stop-opacity="0"/></linearGradient></defs><g transform="translate(8.035 2.333)" fill="none" fill-rule="evenodd"><path fill="#D8D8D8" fill-opacity="0" d="M0 0h70.122v74.667H0z"/><path fill="#666" fill-rule="nonzero" d="M19.775 46.95c-.807 0-1.46-.696-1.46-1.555V24.103c0-.859.653-1.555 1.46-1.555.807 0 1.46.696 1.46 1.555v21.292c0 .86-.653 1.556-1.46 1.556z"/><path fill="#FFF" fill-rule="nonzero" d="M58.256 45.103c2.57.058 4.61 2.32 4.561 5.056V60.27c.05 2.738-1.994 5-4.565 5.056H11.87c-2.572-.056-4.615-2.318-4.566-5.056V50.159c-.049-2.74 1.997-5.002 4.57-5.056h46.382z"/><path d="M58.242 64.548H11.86c-2.568-.06-4.606-2.322-4.555-5.057v.778a5.138 5.138 0 001.3 3.535c.855.948 2.03 1.495 3.265 1.52h46.383c1.235-.025 2.41-.572 3.266-1.52a5.142 5.142 0 001.3-3.535v-.778a5.14 5.14 0 01-1.304 3.539c-.858.948-2.036 1.494-3.273 1.517z" fill="#000" fill-rule="nonzero" opacity=".06"/><path fill="url(#rs651mowfa)" fill-rule="nonzero" d="M39.638 55.017l4.742 8.961 11.494 2.858c3.065.65 5.136-1.725 5.437-2.934l.873-3.5-6.91-14.557-15.636 9.172z" opacity=".2" transform="rotate(-14 50.91 56.396)"/><path fill="#F4F4F4" fill-rule="nonzero" d="M51.203 57.523H40.101c-.767 0-1.388-.682-1.388-1.523v.38c0 .842.621 1.524 1.388 1.524h11.102c.767 0 1.388-.682 1.388-1.523V56c0 .841-.621 1.523-1.388 1.523z"/><path fill="#E60000" fill-rule="nonzero" d="M31.44 16.843a.709.709 0 01-.522-.23c-6.177-6.56-16.175-6.56-22.351 0a.71.71 0 01-.715.203.765.765 0 01-.523-.558.822.822 0 01.193-.76c6.753-7.176 17.687-7.176 24.44 0 .14.146.22.346.22.555 0 .21-.08.41-.22.556a.706.706 0 01-.522.234z"/><path fill="#E60000" fill-rule="nonzero" d="M26.89 20.992a.707.707 0 01-.333-.085.69.69 0 01-.193-.148c-3.636-3.852-9.512-3.852-13.148 0a.71.71 0 01-.523.234.71.71 0 01-.522-.234.807.807 0 01-.221-.558c0-.21.08-.412.221-.558 4.214-4.47 11.03-4.47 15.244 0l.026.027.036.047a.816.816 0 01.095.84.724.724 0 01-.683.435z"/><ellipse cx="13.882" cy="55.222" fill="#000" fill-rule="nonzero" opacity=".06" rx="2.191" ry="2.333"/><circle cx="18.265" cy="55.222" r="1" fill="#D62B11" fill-rule="nonzero"/><circle cx="13.882" cy="55.222" r="1" fill="#D62B11" fill-rule="nonzero"/><g fill-rule="nonzero" transform="translate(38.348 27.222)"><path fill="#FFF" d="M1.753 0h11.103c.766 0 1.387.679 1.387 1.517v27.3c0 .837-.62 1.516-1.387 1.516H1.753c-.766 0-1.388-.679-1.388-1.516v-27.3C.365.679.987 0 1.753 0z"/><rect width="12.874" height="23.228" x=".867" y="3.37" fill="#333" rx="1"/><rect width="12.874" height="23.228" x=".867" y="3.37" fill="url(#tbio76onmb)" opacity=".5" rx="2"/><path d="M13.383 3.56c.1 0 .18.086.18.19v22.467c0 .105-.08.19-.18.19H1.225c-.1 0-.18-.085-.18-.19V3.751c0-.105.08-.19.18-.19h12.158zm0-.19H1.225c-.198 0-.358.17-.358.38v22.467c0 .21.16.381.358.381h12.158c.198 0 .358-.17.358-.38V3.75c0-.21-.16-.381-.358-.381z" fill="#333" opacity=".24"/><rect width="2.861" height="1" x="5.874" y="1.847" fill="#4A4D4E" rx=".5"/><rect width="1" height="1" x="4.801" y="1.847" fill="#E60000" rx=".5"/><ellipse cx="7.304" cy="28.502" fill="#E60000" rx="1.073" ry="1.142"/></g></g></svg>