<svg width="36" height="26" viewBox="0 0 36 26" xmlns="http://www.w3.org/2000/svg"><g id="PDP" stroke="none" stroke-width="1" fill="none" fill-rule="evenodd"><g id="PDP-Oferta-Norte-Desktop---Destiny-4.0---Ilimitada-Avanzada-300" transform="translate(-454 -1216)"><g id="Blocks/-Desktop-/-Product-detail-/-Example" transform="translate(20 572)"><g id="Product-detail-/-Desktop-Tablet-/-+3-lines" transform="translate(420 621)"><g id="Icono" transform="translate(0 4)"><g id="roaming-mid" transform="translate(10 10)"><path d="M7.53 21.77c2.194 2.63 5.44 3.624 8.674 2.496l19.42-6.92a6 6 0 003.832-4.155h0a6 6 0 00-5.585-.862l-7.645 2.709m-6.511 2.305l-7.7 2.727" id="Path" stroke="#676767" stroke-linecap="round" stroke-linejoin="round"/><path d="M21.106 18.755l-7.723-7.847 2.152-.749a2.292 2.292 0 011.776.117L28.394 16.2M6.417 34.375h31.166" id="Path" stroke="#676767" stroke-linecap="round" stroke-linejoin="round"/><path id="Rectangle" d="M0 0h44v44H0z"/><path d="M12.015 20.07l-4.583-2.456a1.97 1.97 0 00-1.506-.087l-1.375.58 2.98 3.666 4.484-1.703z" id="Path" stroke="#E60000" stroke-linecap="round" stroke-linejoin="round"/></g></g></g></g></g></g></svg>