<svg xmlns="http://www.w3.org/2000/svg" width="130" height="130" viewBox="0 0 130 130"><defs><linearGradient id="a" x1="40.758%" x2="97.446%" y1="1.917%" y2="76.093%"><stop offset="0%"/><stop offset="100%" stop-opacity="0"/></linearGradient></defs><g fill="none" fill-rule="evenodd"><circle cx="65" cy="65" r="65" fill="#000" fill-opacity=".2"/><circle cx="65" cy="65" r="35" fill="#FFF" fill-rule="nonzero"/><path fill="#EBEBEB" fill-rule="nonzero" d="M65 51.02l-17.333 8.022-4.94-4.767c-.271-.27-.271-1.2.062-1.354l15.17-6.646c.37-.175.807-.125 1.129.127L65 51.02zm0 0l17.333 8.022 4.94-4.767c.271-.27.271-1.194-.06-1.354l-15.171-6.646a1.083 1.083 0 00-1.13.127L65 51.02z"/><path fill="#000" fill-rule="nonzero" d="M65 51.02l-17.333 8.022-4.94-4.767c-.271-.27-.271-1.2.062-1.354l15.17-6.646c.37-.175.807-.125 1.129.127L65 51.02zm0 0l17.333 8.022 4.94-4.767c.271-.27.271-1.194-.06-1.354l-15.171-6.646a1.083 1.083 0 00-1.13.127L65 51.02z" opacity=".06"/><path fill="#EBEBEB" fill-rule="nonzero" d="M65 66.219L47.667 58.5v17.71c.006.425.26.807.65.978l15.816 6.917a2.167 2.167 0 001.736 0l15.814-6.918c.395-.172.65-.56.65-.99V58.5L65 66.219z"/><path fill="#000" fill-rule="nonzero" d="M65 66.219v18.08c.3 0 .595-.061.87-.18l15.813-6.932c.395-.172.65-.56.65-.99V58.5L65 66.219z" opacity=".06"/><path fill="#EBEBEB" fill-rule="nonzero" d="M65 50.478L47.667 58.5l-4.94-4.767a.542.542 0 01.146-.88l15.085-7.12c.37-.174.808-.125 1.13.127L65 50.478zm0 0L82.333 58.5l4.94-4.767a.542.542 0 00-.146-.88l-15.085-7.12a1.083 1.083 0 00-1.13.127L65 50.478z"/><path fill="#E60000" fill-rule="nonzero" d="M65 66.235L47.667 58.5 65 50.475zm0 0L82.333 58.5 65 50.475z"/><path fill="#000" fill-rule="nonzero" d="M65 66.235L47.667 58.5 65 50.475z" opacity=".12"/><path fill="#EBEBEB" fill-rule="nonzero" d="M86.994 66.116l-4.66-7.616L65 66.232l4.748 8.21c.281.486.888.677 1.397.438l15.384-7.22a1.083 1.083 0 00.465-1.544zm-43.988 0l4.66-7.616L65 66.232l-4.748 8.212a1.083 1.083 0 01-1.397.439l-15.386-7.22a1.083 1.083 0 01-.463-1.547z"/><path fill="url(#a)" fill-rule="nonzero" d="M26 27.232l-4.748 8.212a1.083 1.083 0 01-1.397.439l-7.668-3.6 12.749 12.748.197.087c.274.12.57.182.87.182V27.219l-.003.013z" opacity=".2" transform="translate(39 39)"/><path fill="#000" fill-rule="nonzero" d="M81.683 76.646l-15.814 6.93a2.167 2.167 0 01-1.736 0l-15.816-6.93a1.083 1.083 0 01-.65-.991v.541c0 .43.255.82.65.991l15.816 6.918a2.167 2.167 0 001.736 0l15.814-6.918c.395-.172.65-.56.65-.99v-.542c0 .43-.255.819-.65.99z" opacity=".06"/><path fill="#000" fill-rule="nonzero" d="M86.531 67.12l-15.383 7.221a1.083 1.083 0 01-1.398-.439l-4.5-7.78-.25.11 4.748 8.21c.281.486.888.677 1.397.438l15.384-7.22c.467-.223.712-.745.585-1.246-.08.31-.294.569-.583.707zm-26.279 6.782a1.083 1.083 0 01-1.397.439l-15.386-7.22a1.083 1.083 0 01-.585-.705 1.083 1.083 0 00.585 1.246l15.383 7.22c.51.24 1.116.049 1.398-.438L65 66.232l-.25-.11-4.498 7.78z" opacity=".12"/><path d="M39 39h52v52H39z"/></g></svg>