<svg xmlns="http://www.w3.org/2000/svg" width="84" height="84" viewBox="0 0 84 84">
    <g fill="none" fill-rule="evenodd">
        <g>
            <g>
                <g>
                    <g>
                        <g>
                            <g>
                                <g transform="translate(-1070.000000, -999.000000) translate(20.000000, 887.000000) translate(0.000000, 88.000000) translate(945.000000, 0.000000) translate(81.000000, 0.000000) translate(24.000000, 24.000000)">
                                    <circle cx="42" cy="42" r="35" fill="#FFF" fill-rule="nonzero"/>
                                    <path fill="#000" fill-rule="nonzero" d="M42 76.125c-19.16.001-34.76-15.404-35-34.563V42c0 19.33 15.67 35 35 35s35-15.67 35-35v-.438c-.24 19.16-15.84 34.564-35 34.563z" opacity=".06"/>
                                    <path d="M0 0H84V83.781H0z"/>
                                    <path fill="#E60000" fill-rule="nonzero" d="M54.858 55.82c-1.72.018-3.427-.31-5.018-.966-1.513-.63-2.86-1.6-3.938-2.835-1.143-1.335-2.007-2.885-2.541-4.559-.63-1.98-.934-4.048-.902-6.125-.045-2.217.285-4.425.976-6.532.565-1.683 1.457-3.239 2.625-4.576 1.033-1.174 2.318-2.1 3.758-2.708 1.417-.587 2.938-.884 4.471-.875 2.41 0 4.384.455 5.924 1.365 1.464.825 2.675 2.036 3.5 3.5l-3.732 3.382c-.36-.63-.818-1.198-1.356-1.685-.576-.515-1.246-.914-1.973-1.177-.752-.286-1.55-.435-2.354-.437-1.293-.004-2.541.475-3.5 1.343-1.08.967-1.854 2.23-2.227 3.631-.45 1.55-.678 3.155-.673 4.769-.045 1.917.342 3.819 1.133 5.565.755 1.58 1.693 2.63 2.813 3.15 1.022.495 2.14.76 3.277.779.906.016 1.812-.047 2.708-.188.406-.058.807-.148 1.199-.272v-5.048h-4.34v-4.813h9.406v13.484c-1.078.59-2.239 1.015-3.443 1.26-1.902.416-3.846.607-5.793.569z"/>
                                </g>
                                <path fill="#E60000" fill-rule="nonzero" d="M38.824 45.903c.04 1.522-.24 3.036-.818 4.444-.493 1.183-1.258 2.232-2.232 3.063-.958.805-2.074 1.4-3.276 1.75-1.298.37-2.641.553-3.99.543-.931.002-1.861-.075-2.779-.232-.823-.138-1.632-.348-2.419-.626-.684-.24-1.348-.532-1.986-.875-.51-.27-.987-.6-1.418-.984l2.188-4.633c.927.727 1.941 1.337 3.018 1.815 1.083.47 2.251.705 3.43.691.655.002 1.306-.082 1.939-.249.593-.166 1.146-.454 1.623-.844.495-.39.888-.892 1.146-1.466.307-.703.456-1.464.438-2.231 0-1.702-.526-2.936-1.58-3.719-1.054-.783-2.581-1.168-4.576-1.168-.914-.002-1.826.076-2.726.232-.875.154-1.672.313-2.393.477V27.234h15.409v4.76H27.09v4.647c.162-.045.33-.067.499-.066h.713c3.363 0 5.959.76 7.787 2.28 1.83 1.519 2.74 3.868 2.735 7.048z" transform="translate(-1070.000000, -999.000000) translate(20.000000, 887.000000) translate(0.000000, 88.000000) translate(945.000000, 0.000000) translate(81.000000, 0.000000) translate(24.000000, 24.000000)"/>
                            </g>
                        </g>
                    </g>
                </g>
            </g>
        </g>
    </g>
</svg>
