<svg xmlns="http://www.w3.org/2000/svg" width="130" height="130" viewBox="0 0 130 130"><defs><linearGradient id="a" x1="25%" x2="102.33%" y1="29.373%" y2="79.982%"><stop offset="0%"/><stop offset="100%" stop-opacity="0"/></linearGradient><linearGradient id="b" x1="25.226%" x2="74.774%" y1="10.73%" y2="89.27%"><stop offset="0%" stop-color="#FFF" stop-opacity=".3"/><stop offset="100%" stop-color="#F6F6F6" stop-opacity="0"/></linearGradient></defs><g fill="none" fill-rule="evenodd"><circle cx="65" cy="65" r="65" fill="#000" fill-opacity=".2"/><circle cx="65" cy="65" r="35" fill="#FFF" fill-rule="nonzero"/><g transform="translate(39 39)"><path fill="#D8D8D8" fill-opacity="0" d="M0 0h52v52H0z"/><path fill="#666" fill-rule="nonzero" d="M14.37 32.698a1.083 1.083 0 01-1.083-1.084V16.786a1.083 1.083 0 012.167 0v14.828c0 .599-.485 1.084-1.084 1.084z"/><path fill="#EBEBEB" fill-rule="nonzero" d="M8.805 31.411H43.2a3.456 3.456 0 013.382 3.521v7.042a3.456 3.456 0 01-3.385 3.52H8.802a3.456 3.456 0 01-3.385-3.52v-7.042a3.456 3.456 0 013.388-3.52z"/><path fill="#000" fill-rule="nonzero" d="M43.19 44.953H8.794a3.453 3.453 0 01-3.377-3.52v.54a3.453 3.453 0 003.385 3.522h34.396a3.453 3.453 0 003.385-3.521v-.542a3.453 3.453 0 01-3.393 3.52z" opacity=".06"/><path fill="#E60000" fill-rule="nonzero" d="M23.02 11.73a.542.542 0 01-.386-.16c-4.58-4.569-11.995-4.569-16.575 0a.549.549 0 11-.775-.777c5.008-4.998 13.116-4.998 18.124 0a.542.542 0 010 .774.542.542 0 01-.387.163z"/><path fill="#E60000" fill-rule="nonzero" d="M19.646 14.62a.542.542 0 01-.246-.06.52.52 0 01-.144-.103 6.912 6.912 0 00-9.75 0 .542.542 0 01-.774 0 .542.542 0 010-.777 8.009 8.009 0 0111.304 0l.02.019.026.032a.542.542 0 01-.436.889z"/><circle cx="10.294" cy="38.458" r="1.625" fill="#000" fill-rule="nonzero" opacity=".06"/><circle cx="13.544" cy="38.458" r="1" fill="#D62B11" fill-rule="nonzero"/><circle cx="10.294" cy="38.458" r="1" fill="#D62B11" fill-rule="nonzero"/><path fill="url(#a)" fill-rule="nonzero" d="M29.148 37.607l4.382 7.055 8.016 1.994c1.496 0 3.646-.627 4.033-2.178l.562-2.254-4.998-10.183-11.995 5.566z" opacity=".2" transform="rotate(-14 37.644 39.348)"/><g fill-rule="nonzero" transform="translate(28.708 18.958)"><path fill="#EBEBEB" d="M1.056 0h8.45c.584 0 1.056.473 1.056 1.056V20.07c0 .583-.472 1.056-1.056 1.056h-8.45A1.056 1.056 0 010 20.069V1.056C0 .473.473 0 1.056 0z"/><path fill="#000" d="M9.506 20.854h-8.45A1.07 1.07 0 010 19.771v.27c0 .599.473 1.084 1.056 1.084h8.45a1.07 1.07 0 001.056-1.083v-.271a1.07 1.07 0 01-1.056 1.083z" opacity=".06"/><path fill="#333" d="M.542 2.167H9.75c.15 0 .27.117.27.262v15.455a.267.267 0 01-.27.262H.542a.267.267 0 01-.271-.262V2.429c0-.145.121-.262.27-.262z"/><path fill="url(#b)" d="M.542 2.167H9.75c.15 0 .27.117.27.262v15.455a.267.267 0 01-.27.262H.542a.267.267 0 01-.271-.262V2.429c0-.145.121-.262.27-.262z" opacity=".5"/><path fill="#333" d="M9.75 2.298c.075 0 .135.058.135.13v15.456c0 .072-.06.13-.135.13H.542a.133.133 0 01-.136-.13V2.429c0-.073.06-.131.136-.131H9.75zm0-.131H.542a.266.266 0 00-.271.262v15.455c0 .145.121.262.27.262H9.75c.15 0 .27-.117.27-.262V2.429a.267.267 0 00-.27-.262z" opacity=".24"/><path fill="#4A4D4E" d="M4.159 1.083h1.974c.053 0 .096.043.096.096v.079a.096.096 0 01-.096.096H4.159a.096.096 0 01-.096-.096v-.079c0-.053.043-.096.096-.096z"/><path fill="#E60000" d="M3.617 1.083h.079c.053 0 .096.043.096.096v.079a.096.096 0 01-.096.096h-.079a.096.096 0 01-.096-.096v-.079c0-.053.043-.096.096-.096z"/><circle cx="5.146" cy="19.771" r="1" fill="#E60000"/></g></g></g></svg>