<svg xmlns="http://www.w3.org/2000/svg" width="130" height="130" viewBox="0 0 130 130"><g fill="none" fill-rule="evenodd"><circle cx="65" cy="65" r="65" fill="#000" fill-opacity=".2"/><g transform="translate(23 23)"><path d="M0 0h84v84H0z"/><rect width="70" height="70" x="7" y="7" fill="#FFF" fill-rule="nonzero" rx="35"/><circle cx="3.5" cy="3.5" r="3.5" fill="#4A4D4E" fill-rule="nonzero" transform="translate(38.5 48.125)"/><path stroke="#E60000" stroke-linecap="round" stroke-linejoin="round" stroke-width="1.75" d="M23.7 34.724a25.87 25.87 0 0136.6 0m-31.303 4.651a18.484 18.484 0 0126.15 0M34.44 43.391c4.198-4.19 10.996-4.19 15.194 0"/><path fill="#000" fill-rule="nonzero" d="M42 76.125C22.862 76.072 7.293 60.698 7 41.562V42c.058 19.306 15.694 34.942 35 35 19.306-.058 34.942-15.694 35-35v-.438c-.293 19.136-15.862 34.51-35 34.563z" opacity=".06"/></g></g></svg>