<svg width="29" height="35" viewBox="0 0 29 35" xmlns="http://www.w3.org/2000/svg"><g id="PDP" stroke="none" stroke-width="1" fill="none" fill-rule="evenodd"><g id="PDP-Oferta-Norte-Desktop---Destiny-4.0---Ilimitada-Avanzada-300" transform="translate(-459 -1034)"><g id="Blocks/-Desktop-/-Product-detail-/-Example" transform="translate(20 572)"><g id="Product-detail-/-Desktop-Tablet-/-2-lines-Copy" transform="translate(420 445)"><g id="music-and-movies-mid" transform="translate(10 10)"><path id="Rectangle" d="M0 0h48v48H0z"/><path id="Path" stroke="#E60000" stroke-linecap="round" stroke-linejoin="round" d="M29.475 37.875l.012-15.375 5.078 4.043"/><ellipse id="Oval" stroke="#E60000" stroke-linecap="round" stroke-linejoin="round" transform="rotate(-22.82 25.896 38.487)" cx="25.896" cy="38.487" rx="3.655" ry="2.877"/><path d="M26.515 32.5H11.947a1.433 1.433 0 01-1.447-1.425V15.5h27v15.575a1.433 1.433 0 01-1.447 1.418h-3.578M10.54 19.492H37.5M35.35 7.5l-23.975 3.89a1.518 1.518 0 00-1.25 1.75l.375 2.36 26.97-4.38-.383-2.37A1.515 1.515 0 0035.35 7.5zM14.01 19.457l3.98-3.967m4.085 3.967l3.977-3.967m3.958 3.967l3.98-3.967m-20.66-4.418l4.553 3.223m3.41-4.512l4.555 3.225m3.282-4.493l4.555 3.223" id="Path" stroke="#666" stroke-linecap="round" stroke-linejoin="round"/></g></g></g></g></g></svg>